<?xml version="1.0" encoding="UTF-8" standalone="no"?>
<svg
   xmlns:dc="http://purl.org/dc/elements/1.1/"
   xmlns:cc="http://creativecommons.org/ns#"
   xmlns:rdf="http://www.w3.org/1999/02/22-rdf-syntax-ns#"
   xmlns:svg="http://www.w3.org/2000/svg"
   xmlns="http://www.w3.org/2000/svg"
   xmlns:sodipodi="http://sodipodi.sourceforge.net/DTD/sodipodi-0.dtd"
   xmlns:inkscape="http://www.inkscape.org/namespaces/inkscape"
   sodipodi:docname="lista.02.01.svg"
   inkscape:version="1.0 (1.0+r73+1)"
   id="svg8"
   version="1.1"
   viewBox="0 0 210 297"
   height="297mm"
   width="210mm">
  <defs
     id="defs2" />
  <sodipodi:namedview
     inkscape:document-rotation="0"
     inkscape:window-maximized="1"
     inkscape:window-y="27"
     inkscape:window-x="0"
     inkscape:window-height="1025"
     inkscape:window-width="1920"
     showgrid="false"
     inkscape:current-layer="layer1"
     inkscape:document-units="mm"
     inkscape:cy="728.07598"
     inkscape:cx="384.24537"
     inkscape:zoom="1.979899"
     inkscape:pageshadow="2"
     inkscape:pageopacity="0.0"
     borderopacity="1.0"
     bordercolor="#666666"
     pagecolor="#ffffff"
     id="base" />
  <metadata
     id="metadata5">
    <rdf:RDF>
      <cc:Work
         rdf:about="">
        <dc:format>image/svg+xml</dc:format>
        <dc:type
           rdf:resource="http://purl.org/dc/dcmitype/StillImage" />
        <dc:title />
      </cc:Work>
    </rdf:RDF>
  </metadata>
  <g
     id="layer1"
     inkscape:groupmode="layer"
     inkscape:label="Layer 1">
    <path
       inkscape:connector-curvature="0"
       id="path815"
       d="M 13.363476,87.460689 H 107.17508"
       style="fill:none;stroke:#000000;stroke-width:0.26458332px;stroke-linecap:butt;stroke-linejoin:miter;stroke-opacity:1" />
    <path
       inkscape:connector-curvature="0"
       d="m 108.02577,89.755418 c 1.106,0.860359 2.33082,1.53956 3.5528,2.216362 2.0064,1.100576 4.22864,1.641541 6.45729,2.070914 3.42668,0.765083 6.89345,1.327381 10.34747,1.951477 3.5625,0.558877 7.14046,1.026308 10.72254,1.442112 2.50333,0.286355 5.02287,0.358806 7.54005,0.390064 2.07893,0.01685 4.158,0.0131 6.23694,1.99e-4 1.119,-0.009 2.23793,-0.02484 3.35692,-0.03394 0.62803,-0.0072 1.25607,-0.0016 1.88411,-5.29e-4 0.75665,-0.0096 1.50787,-0.141182 2.26223,-0.20828 0.61096,-0.05433 1.20216,-0.2183 1.81516,-0.272775 0.62885,-0.14216 1.25964,-0.219691 1.88073,-0.391885 0.54299,-0.07697 1.04067,-0.287832 1.54916,-0.478745 0.51063,-0.263578 1.0636,-0.422449 1.57948,-0.675161 0.63034,-0.218323 1.23907,-0.492977 1.85282,-0.754258 0.63478,-0.195988 1.24621,-0.449649 1.86434,-0.690274 0.60553,-0.180152 1.17236,-0.45905 1.74886,-0.712309 -0.14666,0.14791 0.92763,-0.496541 0.69944,-0.365612 -0.98579,0.565642 -3.9456,2.258211 -2.95488,1.701247 1.48099,-0.832593 3.01028,-1.792017 4.55438,-2.589318 -5.80815,3.356464 -2.98665,1.806818 -1.75565,0.88387 0.50634,-0.359609 1.00021,-0.737587 1.48283,-1.128464 0.0642,-0.05132 0.12843,-0.102642 0.19265,-0.153966 0,0 3.67353,-1.49792 3.67353,-1.49792 v 0 c -0.0616,0.06133 -0.12323,0.122663 -0.18485,0.183996 -0.50613,0.364678 -0.97014,0.78476 -1.48271,1.14291 -0.26141,0.176406 -0.49546,0.38145 -0.75389,0.561629 -1.30306,0.908513 -3.47282,1.351409 -4.24199,2.476169 -0.25595,0.13989 -1.01772,0.570378 -0.76576,0.423452 0.98215,-0.572709 3.94132,-2.268744 2.95063,-1.710928 -1.48715,0.837356 -2.9366,1.827636 -4.51102,2.528345 -0.57695,0.261771 -1.16748,0.488246 -1.76359,0.702532 -0.61201,0.2471 -1.24159,0.444836 -1.85291,0.693188 -0.61655,0.260519 -1.23527,0.515196 -1.85535,0.767061 -0.53237,0.218972 -1.0677,0.430131 -1.59657,0.657265 -0.51238,0.193775 -1.03976,0.325173 -1.57411,0.443412 -0.62968,0.148889 -1.2746,0.229669 -1.9105,0.347393 -0.605,0.08802 -1.20207,0.232346 -1.81474,0.260784 -0.76006,0.07363 -1.51857,0.194915 -2.28414,0.178975 -0.62777,10e-4 -1.25554,0.007 -1.88331,5.3e-4 -1.09314,-0.007 -2.18624,-0.0176 -3.27939,-0.0221 -2.07267,-0.005 -4.14543,0.006 -6.21799,-0.0228 -2.50768,-0.0534 -5.01793,-0.143358 -7.50849,-0.462068 -3.56452,-0.466227 -7.13011,-0.933627 -10.68055,-1.497203 -3.4762,-0.628531 -6.9676,-1.174967 -10.425,-1.903436 -2.27478,-0.447299 -4.54276,-0.999868 -6.59338,-2.122382 -1.24431,-0.679312 -2.4677,-1.388374 -3.6416,-2.184831 0,0 3.32801,-2.144712 3.32801,-2.144712 z"
       id="path817"
       style="fill:none;stroke:#000000;stroke-width:0.82800001;stroke-miterlimit:4;stroke-dasharray:none;stroke-opacity:1" />
    <path
       inkscape:connector-curvature="0"
       id="path819"
       d="m 178.56897,90.458225 c 0.61265,-1.088268 1.16116,-2.215224 1.83796,-3.264804 0.0348,-0.05397 0.72052,0 0.80181,0 1.24725,0 2.49451,0 3.74177,0 2.04907,0 4.09813,0 6.1472,0 0.80181,0 1.60362,0 2.40542,0 0.0635,0 1.00918,0.02995 1.06908,0 0.11269,-0.05635 0.15458,-0.210926 0.26727,-0.267272 0.0703,-0.03514 0.92932,0 1.06908,0 0.71272,0 1.42544,0 2.13816,0 2.36927,0 5.37026,0 6.949,0"
       style="fill:none;stroke:#000000;stroke-width:0.26458332px;stroke-linecap:butt;stroke-linejoin:miter;stroke-opacity:1" />
    <path
       inkscape:connector-curvature="0"
       id="path821"
       d="M 13.096207,97.884201 C 91.673446,98.418739 104.69776,91.90012 104.69776,91.90012"
       style="fill:none;stroke:#000000;stroke-width:0.26458332px;stroke-linecap:butt;stroke-linejoin:miter;stroke-opacity:1" />
    <text
       id="text825"
       y="106.16956"
       x="44.099468"
       style="font-style:normal;font-weight:normal;font-size:10.5833px;line-height:1.25;font-family:sans-serif;letter-spacing:0px;word-spacing:0px;fill:#000000;fill-opacity:1;stroke:none;stroke-width:0.264583"
       xml:space="preserve"><tspan
         style="stroke-width:0.264583"
         y="106.16956"
         x="44.099468"
         id="tspan823"
         sodipodi:role="line">D</tspan></text>
    <text
       id="text829"
       y="109.64406"
       x="142.18739"
       style="font-style:normal;font-weight:normal;font-size:10.5833px;line-height:1.25;font-family:sans-serif;letter-spacing:0px;word-spacing:0px;fill:#000000;fill-opacity:1;stroke:none;stroke-width:0.264583"
       xml:space="preserve"><tspan
         style="stroke-width:0.264583"
         y="109.64406"
         x="142.18739"
         id="tspan827"
         sodipodi:role="line">H</tspan></text>
    <g
       id="g840">
      <path
         style="fill:none;stroke:#000000;stroke-width:0.26458332px;stroke-linecap:butt;stroke-linejoin:miter;stroke-opacity:1"
         d="m 15.827753,84.364768 c -0.155205,0.0388 -0.03848,-0.0016 -0.165365,0.07087 -0.03058,0.01746 -0.06584,0.02678 -0.09449,0.04725 -0.02719,0.01942 -0.04521,0.04948 -0.07087,0.07087 -0.02181,0.01818 -0.0487,0.02951 -0.07087,0.04725 -0.01739,0.01392 -0.0315,0.0315 -0.04725,0.04725 -0.01575,0.01574 -0.0315,0.0315 -0.04725,0.04725 -0.0079,0.0079 -0.01745,0.01437 -0.02362,0.02363 -0.0098,0.01466 -0.01386,0.0326 -0.02363,0.04725 -0.01817,0.02726 -0.0527,0.04361 -0.07087,0.07087 -0.0044,0.0066 0.0035,0.01659 0,0.02363 -0.005,0.0099 -0.01864,0.01365 -0.02362,0.02363 -0.0035,0.007 0.0035,0.01659 0,0.02363 -0.005,0.01 -0.01864,0.01365 -0.02362,0.02363 -0.0026,0.0053 0,0.08888 0,0.09449 0,0.0315 0,0.063 0,0.09449 0,0.01574 0,0.0315 0,0.04725 0,0.0079 -0.0019,0.01598 0,0.02363 0.03585,0.143388 -0.0034,0.02027 0.07087,0.09449 0.0056,0.0056 -0.0044,0.01707 0,0.02363 0.01344,0.03197 0.05234,0.04307 0.07087,0.07087 0.0098,0.01466 0.01575,0.0315 0.02362,0.04725 0.01575,0.01574 0.03388,0.02943 0.04725,0.04725 0.01056,0.01408 0.01306,0.03316 0.02363,0.04725 0.01336,0.01781 0.0315,0.0315 0.04725,0.04725 0.01575,0.01574 0.02943,0.03388 0.04725,0.04725 0.01409,0.01056 0.03316,0.01307 0.04725,0.02363 0.01782,0.01336 0.02943,0.03388 0.04725,0.04725 0.04158,0.03118 0.100164,0.03969 0.141741,0.07087 0.01782,0.01336 0.02943,0.03388 0.04725,0.04725 0.03649,0.02737 0.102402,0.04464 0.141741,0.07087 0.05406,0.03604 -0.01477,0.01871 0.07087,0.04725 0.0075,0.0024 0.01658,-0.0035 0.02362,0 0.01,0.005 0.01366,0.01865 0.02362,0.02363 0.01409,0.007 0.03231,-0.005 0.04725,0 0.133843,0.06692 -0.03522,-0.0088 0.09449,0.02363 0.01708,0.0043 0.0315,0.01574 0.04725,0.02363 0.02362,0.0079 0.04645,0.01873 0.07087,0.02363 0.01544,0.0031 0.0315,0 0.04725,0 0.04725,0 0.09449,0 0.141741,0 0.04725,0 0.09449,0 0.141741,0 0.02362,0 0.04757,0.0039 0.07087,0 0.02456,-0.0041 0.04671,-0.0176 0.07087,-0.02363 0.03895,-0.0097 0.07916,-0.01389 0.118118,-0.02363 0.02416,-0.006 0.04645,-0.01873 0.07087,-0.02363 0.01544,-0.0031 0.03231,0.005 0.04725,0 0.01279,-0.0043 0.05535,-0.06052 0.07087,-0.07087 0.01465,-0.0098 0.0326,-0.01386 0.04725,-0.02363 0.01853,-0.01236 0.0315,-0.0315 0.04725,-0.04725 0.02363,-0.02363 0.04725,-0.04725 0.07087,-0.07087 0.01575,-0.01574 0.0315,-0.0315 0.04725,-0.04725 0.01575,-0.01574 0.03729,-0.02733 0.04725,-0.04725 0.007,-0.01408 -0.007,-0.03316 0,-0.04725 0.0035,-0.007 0.01806,0.0056 0.02363,0 2.3e-5,-2.4e-5 -3.6e-5,-0.07077 0,-0.07087 0.0035,-0.01056 0.0201,-0.01307 0.02362,-0.02363 0.0075,-0.02241 0,-0.04725 0,-0.07087 0,-0.03937 0,-0.07875 0,-0.118118 0,-0.02006 0.0043,-0.12872 0,-0.141743 -0.007,-0.02114 -0.03729,-0.02733 -0.04725,-0.04725 -0.0035,-0.007 0.0035,-0.01659 0,-0.02363 -0.01,-0.01992 -0.03489,-0.02872 -0.04725,-0.04725 -0.0098,-0.01466 -0.01386,-0.03259 -0.02362,-0.04725 -0.0062,-0.0093 -0.01575,-0.01574 -0.02362,-0.02363 -0.02634,-0.02635 -0.102557,-0.09478 -0.118117,-0.118118 -0.0044,-0.0066 0.0044,-0.01707 0,-0.02363 -0.01575,-0.01574 -0.0315,-0.0315 -0.04725,-0.04725 0,-0.0079 0.0035,-0.01659 0,-0.02363 -0.04916,-0.09832 0.0016,0.02527 -0.04725,-0.02363 -0.0056,-0.0056 0.0035,-0.01659 0,-0.02363 -0.01,-0.01992 -0.03729,-0.02732 -0.04725,-0.04725 -0.0035,-0.007 0.0056,-0.01805 0,-0.02363 -0.0056,-0.0056 -0.01806,0.0056 -0.02362,0 -0.0056,-0.0056 0.0056,-0.01804 0,-0.02363 -0.0056,-0.0056 -0.01658,0.0035 -0.02363,0 -0.02835,-0.01418 -0.04252,-0.0567 -0.07087,-0.07087 -0.007,-0.0035 -0.01806,0.0056 -0.02362,0 -0.0056,-0.0056 0.0056,-0.01805 0,-0.02363 -0.0056,-0.0056 -0.01658,0.0035 -0.02362,0 -0.01,-0.005 -0.01366,-0.01865 -0.02362,-0.02363 -0.007,-0.0035 -0.01658,0.0035 -0.02362,0 -0.01,-0.005 -0.01575,-0.01574 -0.02362,-0.02363 -0.0079,-0.0079 -0.01575,-0.01574 -0.02362,-0.02363 -0.0079,-0.0079 -0.01575,-0.01574 -0.02362,-0.02363 -0.0079,-0.0079 -0.01366,-0.01865 -0.02362,-0.02363 -0.007,-0.0035 -0.01658,0.0035 -0.02362,0 -0.01992,-0.0099 -0.02733,-0.03729 -0.04725,-0.04725 -0.0189,-0.0094 -0.05197,0.0094 -0.07087,0 -0.01,-0.005 -0.01366,-0.01865 -0.02362,-0.02363 -0.007,-0.0035 -0.01615,0.0024 -0.02362,0 -0.01671,-0.0056 -0.03054,-0.01805 -0.04725,-0.02363 -0.0075,-0.0024 -0.01658,0.0035 -0.02362,0 -0.01,-0.005 -0.01306,-0.02011 -0.02362,-0.02363 -0.0171,-0.0057 -0.08671,0.0078 -0.09449,0 -0.0056,-0.0056 0.0056,-0.01804 0,-0.02363 -7.67e-4,-7.94e-4 -0.06514,0 -0.07087,0 -0.149615,0 -0.299231,0 -0.448847,0"
         id="path831"
         inkscape:connector-curvature="0" />
      <path
         style="fill:none;stroke:#000000;stroke-width:0.26458332px;stroke-linecap:butt;stroke-linejoin:miter;stroke-opacity:1"
         d="m 22.135231,84.553755 c -0.04443,0.02291 -0.09591,-0.01146 -0.141742,0 -0.01708,0.0043 -0.02998,0.02016 -0.04725,0.02363 -0.0025,5.29e-4 -0.137879,-0.0026 -0.141741,0 -0.215719,0.143812 0.135999,-0.03746 -0.118117,0.04725 -0.02694,0.009 -0.04679,0.0322 -0.07087,0.04725 -0.03894,0.02434 -0.07825,0.04809 -0.118117,0.07087 -0.171285,0.08564 0.03735,-0.0249 -0.07087,0.04725 -0.01465,0.0098 -0.0326,0.01386 -0.04725,0.02363 -0.0278,0.01852 -0.04414,0.05082 -0.07087,0.07087 -0.01409,0.01056 -0.0348,0.01117 -0.04725,0.02363 -0.01245,0.01246 -0.01386,0.0326 -0.02362,0.04725 -0.0062,0.0093 -0.0201,0.01307 -0.02362,0.02363 -0.005,0.01495 0.0038,0.03197 0,0.04725 -0.03856,0.154228 -0.01268,-0.08925 -0.04725,0.118118 -0.0039,0.02331 0,0.04725 0,0.07087 -0.0079,0.02363 -0.01953,0.04631 -0.02362,0.07087 -0.0039,0.02331 0,0.04725 0,0.07087 0,0.04725 0,0.09449 0,0.14174 0,0.01574 0.0031,0.03181 0,0.04725 -0.0049,0.02442 -0.01953,0.04631 -0.02362,0.07087 -0.0053,0.032 0,0.126246 0,0.165365 0,0.0315 0,0.063 0,0.09449 0,0.01574 -0.0026,0.03171 0,0.04725 0.0053,0.03203 0.0147,0.06328 0.02362,0.09449 0.0068,0.02394 0.01081,0.04952 0.02362,0.07087 0.01146,0.0191 0.03388,0.02943 0.04725,0.04725 0.01056,0.01408 0.01386,0.0326 0.02362,0.04725 0.0062,0.0093 0.01694,0.01471 0.02362,0.02363 0.01704,0.02273 0.03021,0.04816 0.04725,0.07087 0.0067,0.0089 0.01694,0.01471 0.02363,0.02363 0.01704,0.0227 0.03021,0.04816 0.04725,0.07087 0.02004,0.02673 0.04725,0.04725 0.07087,0.07087 0.01575,0.01574 0.02871,0.03489 0.04725,0.04725 0.0066,0.0044 0.01707,-0.0044 0.02362,0 0.01853,0.01236 0.02943,0.03388 0.04725,0.04725 0.01409,0.01056 0.0315,0.01574 0.04725,0.02363 0.04725,0.02363 0.09449,0.04725 0.141741,0.07087 0.01575,0.0079 0.03316,0.01307 0.04725,0.02363 0.01782,0.01336 0.02732,0.03729 0.04725,0.04725 0.01409,0.007 0.03197,-0.0038 0.04725,0 0.03416,0.0085 0.06109,0.03611 0.09449,0.04725 0.0075,0.0024 0.01575,0 0.02363,0 0.02457,0 0.123159,-0.0047 0.141741,0 0.01708,0.0043 0.03017,0.01934 0.04725,0.02363 0.01528,0.0038 0.0315,0 0.04725,0 0.02363,0 0.04725,0 0.07087,0 0.0315,0 0.063,0 0.09449,0 0.01575,0 0.0318,0.0031 0.04725,0 0.02442,-0.0049 0.04952,-0.01082 0.07087,-0.02363 0.127004,-0.0762 -0.04736,-0.02357 0.118118,-0.0945 0.02984,-0.01278 0.06545,-0.0091 0.09449,-0.02363 0.01992,-0.01 0.02871,-0.03489 0.04725,-0.04725 0.0293,-0.01953 0.06744,-0.02471 0.09449,-0.04725 0.02181,-0.01818 0.02717,-0.05079 0.04725,-0.07087 0.01245,-0.01246 0.03215,-0.01455 0.04725,-0.02363 0.02435,-0.01461 0.04653,-0.03264 0.07087,-0.04725 0.0151,-0.009 0.0348,-0.01116 0.04725,-0.02363 0.0922,-0.09219 -0.0055,-0.01267 0.02362,-0.07087 0.05406,-0.108116 -0.0098,0.100243 0.04725,-0.07087 0.0025,-0.0075 0,-0.01574 0,-0.02363 0,-0.04027 -0.0025,-0.04227 0.02362,-0.09449 0.005,-0.0099 0.0201,-0.01307 0.02362,-0.02363 0.005,-0.01495 0,-0.0315 0,-0.04725 0,-0.01574 0,-0.0315 0,-0.04725 0,-0.06299 0,-0.125992 0,-0.188986 0,-0.10237 0,-0.204738 0,-0.307108 0,-0.03416 0.005,-0.140417 0,-0.165364 -0.0035,-0.01725 -0.01935,-0.03016 -0.02362,-0.04725 -0.0038,-0.01527 0.007,-0.03316 0,-0.04725 -0.01,-0.01992 -0.03388,-0.02943 -0.04725,-0.04725 -0.01056,-0.01408 -0.01386,-0.0326 -0.02362,-0.04725 -0.01235,-0.01852 -0.0402,-0.02611 -0.04725,-0.04725 -0.005,-0.01495 0.007,-0.03316 0,-0.04725 -0.0035,-0.007 -0.01806,0.0056 -0.02362,0 -0.0056,-0.0056 0.0035,-0.01659 0,-0.02363 -0.005,-0.0099 -0.01864,-0.01365 -0.02362,-0.02363 -0.0035,-0.007 0,-0.01574 0,-0.02363 -0.0079,-0.01574 -0.01386,-0.0326 -0.02362,-0.04725 -0.0065,-0.0097 -0.06116,-0.0644 -0.07087,-0.07087 -0.03443,-0.02294 -0.0492,-0.01474 -0.07087,-0.04725 -0.0098,-0.01466 -0.01386,-0.0326 -0.02363,-0.04725 -0.0067,-0.01 -0.0611,-0.06598 -0.07087,-0.07087 -0.007,-0.0035 -0.01806,0.0056 -0.02362,0 -0.02877,-0.02877 -0.01106,-0.05278 -0.04725,-0.07087 -0.05818,-0.02909 0.02133,0.06857 -0.07087,-0.02363 -0.0056,-0.0056 0.0056,-0.01804 0,-0.02363 -0.01114,-0.01114 -0.03611,0.01114 -0.04725,0 -0.0056,-0.0056 0.0056,-0.01805 0,-0.02363 -0.01114,-0.01114 -0.03316,0.007 -0.04725,0 -0.01,-0.005 -0.01366,-0.01865 -0.02362,-0.02363 -0.007,-0.0035 -0.01806,0.0056 -0.02363,0 -0.0056,-0.0056 0.0056,-0.01804 0,-0.02363 -9.52e-4,-0.0011 -0.08582,0 -0.09449,0 -0.03937,0 -0.07875,0 -0.118117,0 -0.01575,0 -0.0315,0 -0.04725,0 -0.0079,0 -0.01658,-0.0035 -0.02363,0 -0.224618,0.112311 0.153067,-0.0274 -0.212612,0.0945"
         id="path833"
         inkscape:connector-curvature="0" />
      <path
         style="fill:none;stroke:#000000;stroke-width:0.26458332px;stroke-linecap:butt;stroke-linejoin:miter;stroke-opacity:1"
         d="m 12.898437,85.167966 c 0.246838,0 -0.03614,-0.0099 0.165365,0.02363 0.0233,0.0039 0.04725,0 0.07087,0 0.03937,0 0.07874,0 0.118118,0 0.0079,0 0.01575,0 0.02363,0 0.0079,0 0.01658,-0.0035 0.02362,0 0.01,0.005 0.01366,0.01865 0.02362,0.02363 0.007,0.0035 0.01575,0 0.02363,0 0.0079,0 0.01575,0 0.02362,0 0.04725,0 0.09449,0 0.141741,0 0.01575,0 0.0315,0 0.04725,0 0.01575,0 0.03316,0.007 0.04725,0 0.007,-0.0035 -0.0056,-0.01805 0,-0.02363 0.01114,-0.01114 0.03611,0.01114 0.04725,0 0.0056,-0.0056 -0.0056,-0.01805 0,-0.02363 0.01245,-0.01246 0.0348,-0.01117 0.04725,-0.02363 0.0056,-0.0056 0,-0.01574 0,-0.02363 0.01575,-0.01574 0.02943,-0.03388 0.04725,-0.04725 0.06899,-0.05174 0.0325,0.0118 0.09449,-0.07087 0.01056,-0.01408 0.01117,-0.0348 0.02362,-0.04725 0.01245,-0.01246 0.0348,-0.01117 0.04725,-0.02363 0.02008,-0.02008 0.02717,-0.05079 0.04725,-0.07087 0.01575,-0.0079 0.0315,-0.01574 0.04725,-0.02363 0,-0.0079 -0.0056,-0.01804 0,-0.02363 0.01245,-0.01246 0.03748,-0.009 0.04725,-0.02363 0.0087,-0.0131 -0.0087,-0.03414 0,-0.04725 0.0098,-0.01466 0.03316,-0.01307 0.04725,-0.02363 0.01782,-0.01336 0.03333,-0.02985 0.04725,-0.04725 0.03547,-0.04434 0.063,-0.09449 0.09449,-0.14174 0.01575,-0.02363 0.02717,-0.0508 0.04725,-0.07087 0.184392,-0.184393 0.02537,-0.0072 0.141741,-0.09449 0.06812,-0.05109 0.03063,-0.03413 0.07087,-0.09449 0.01359,-0.02037 0.05242,-0.05242 0.07087,-0.07087 0.0298,-0.0298 0.06158,-0.06981 0.09449,-0.09449 0.01409,-0.01056 0.03316,-0.01307 0.04725,-0.02363 0.01782,-0.01336 0.0315,-0.0315 0.04725,-0.04725 0.02362,-0.02363 0.04725,-0.04725 0.07087,-0.07087 0.01575,-0.01574 0.02985,-0.03333 0.04725,-0.04725 0.08578,-0.06863 0.05596,-0.02588 0.141741,-0.09449 0.01739,-0.01392 0.02986,-0.03333 0.04725,-0.04725 0.02217,-0.01773 0.0487,-0.02951 0.07087,-0.04725 0.03478,-0.02783 0.05886,-0.06776 0.09449,-0.09449 0.04837,-0.03627 0.113531,-0.03977 0.165365,-0.07087 0.02435,-0.01461 0.04477,-0.03606 0.07087,-0.04725 0.02984,-0.01278 0.063,-0.01574 0.09449,-0.02363 0.0315,-0.0079 0.06228,-0.0196 0.0945,-0.02363 0.07032,-0.0088 0.142174,0.0078 0.212611,0 0.03227,-0.0036 0.06235,-0.01902 0.09449,-0.02363 0.02339,-0.0033 0.04725,0 0.07087,0 0.0315,0 0.063,0 0.09449,0 0.09449,0 0.188988,0 0.283482,0 0.04725,0 0.09449,0 0.141741,0 0.01575,0 0.03197,-0.0038 0.04725,0 0.01708,0.0043 0.0315,0.01574 0.04725,0.02363 0.02362,0.0079 0.04645,0.01873 0.07087,0.02363 0.01544,0.0031 0.03231,-0.005 0.04725,0 0.03341,0.01114 0.06109,0.03611 0.09449,0.04725 0.01494,0.005 0.03262,-0.0058 0.04725,0 0.02636,0.01056 0.04451,0.0367 0.07087,0.04725 0.01462,0.0058 0.03262,-0.0058 0.04725,0 0.08259,0.03304 0.05614,0.04801 0.118118,0.09449 0.01409,0.01056 0.03316,0.01307 0.04725,0.02363 0.02941,0.02207 0.09116,0.09116 0.118117,0.118118 0.102179,0.102177 -0.0063,0.0037 0.09449,0.07087 0.03872,0.02582 0.01446,0.02989 0.04725,0.07087 0.03478,0.04348 0.08471,0.07357 0.118118,0.118118 0.02113,0.02817 0.02612,0.06632 0.04725,0.09449 0.01336,0.01783 0.03388,0.02943 0.04725,0.04725 0.02113,0.02817 0.02612,0.06632 0.04725,0.0945 0.01336,0.01781 0.03729,0.02733 0.04725,0.04725 0.007,0.01408 -0.007,0.03316 0,0.04725 0.01,0.01992 0.03729,0.02733 0.04725,0.04725 0.0077,0.01545 -0.0049,0.09852 0,0.118118 0.0043,0.01709 0.01935,0.03016 0.02362,0.04725 0.0038,0.01527 -0.0038,0.03197 0,0.04725 0.0043,0.01709 0.01935,0.03016 0.02362,0.04725 0.0038,0.01527 -0.0031,0.03181 0,0.04725 0.0049,0.02442 0.01953,0.04631 0.02362,0.07087 0.0039,0.02331 0,0.04725 0,0.07087 0,0.01574 -0.007,0.03316 0,0.04725 0.01,0.01992 0.03489,0.02872 0.04725,0.04725 0.0044,0.0066 0,0.01574 0,0.02363 0,0.01574 -0.005,0.03231 0,0.04725 0.0035,0.01056 0.01864,0.01365 0.02363,0.02363 0.01114,0.02228 0.01437,0.04775 0.02362,0.07087 0.0065,0.01635 0.01575,0.0315 0.02362,0.04725 0.0079,0.01574 0.01306,0.03316 0.02362,0.04725 0.02004,0.02672 0.04725,0.04725 0.07087,0.07087 0.01575,0.01574 0.0315,0.0315 0.04725,0.04725 0.0079,0.0079 0.01366,0.01865 0.02362,0.02363 0.007,0.0035 0.01658,-0.0035 0.02362,0 0.01,0.005 0.01436,0.01744 0.02362,0.02363 0.01465,0.0098 0.0315,0.01574 0.04725,0.02363 0.01575,0.0079 0.0326,0.01386 0.04725,0.02363 0.0093,0.0062 0.01282,0.02093 0.02362,0.02363 0.02292,0.0057 0.04757,-0.0039 0.07087,0 0.235353,0.03923 -0.127588,0.01064 0.165364,0.04725 0.03126,0.0039 0.06315,-0.0031 0.09449,0 0.313909,0.03139 -0.03001,0.02363 0.283482,0.02363 0.07875,0 0.157762,-0.0065 0.236235,0 0.345621,0.0288 -0.0198,0.02363 0.236235,0.02363 0.0016,0 0.15836,0.0035 0.165365,0 0.01992,-0.0099 0.02943,-0.03388 0.04725,-0.04725 0.01409,-0.01056 0.03316,-0.01304 0.04725,-0.02363 0.01782,-0.01336 0.02943,-0.03388 0.04725,-0.04725 0.04158,-0.03118 0.100164,-0.03969 0.141741,-0.07087 0.02673,-0.02005 0.04725,-0.04725 0.07087,-0.07087 0.0079,-0.0079 0.01575,-0.01574 0.02362,-0.02363 0.0079,-0.0079 0.01864,-0.01365 0.02362,-0.02363 0.0035,-0.007 -0.0035,-0.01659 0,-0.02363 0.005,-0.0099 0.01745,-0.01437 0.02362,-0.02363 0.0098,-0.01466 0.01575,-0.0315 0.02362,-0.04725 0.0079,-0.01574 0.01708,-0.0309 0.02362,-0.04725 0.0092,-0.02313 0.01081,-0.04952 0.02362,-0.07087 0.02292,-0.0382 0.06777,-0.05886 0.09449,-0.09449 0.01056,-0.01408 0.01386,-0.0326 0.02362,-0.04725 0.0062,-0.0093 0.01864,-0.01365 0.02362,-0.02363 0.0035,-0.007 -0.0035,-0.01659 0,-0.02363 0.005,-0.0099 0.0201,-0.01304 0.02362,-0.02363 0.04178,-0.125351 -0.05376,0.03448 0.02362,-0.09449 0.01461,-0.02434 0.0315,-0.04725 0.04725,-0.07087 0.01575,-0.02363 0.02951,-0.0487 0.04725,-0.07087 0.01392,-0.01738 0.03333,-0.02986 0.04725,-0.04725 0.01773,-0.02217 0.02951,-0.0487 0.04725,-0.07087 0.01392,-0.01738 0.03579,-0.02815 0.04725,-0.04725 0.01281,-0.02135 0.01081,-0.04952 0.02363,-0.07087 0.03599,-0.05999 0.08623,-0.04666 0.118117,-0.09449 0.125993,-0.188986 -0.08662,0.08662 0.07087,-0.07087 0.0056,-0.0056 0,-0.01574 0,-0.02363 0.01575,-0.01574 0.02872,-0.03489 0.04725,-0.04725 0.0293,-0.01953 0.06392,-0.02978 0.09449,-0.04725 0.02465,-0.01408 0.04477,-0.03606 0.07087,-0.04725 0.02984,-0.01278 0.06409,-0.01222 0.09449,-0.02363 0.03297,-0.01236 0.06152,-0.03488 0.09449,-0.04725 0.0608,-0.02281 0.128188,-0.02445 0.188988,-0.04725 0.03297,-0.01236 0.06152,-0.03488 0.09449,-0.04725 0.0304,-0.0114 0.063,-0.01574 0.09449,-0.02363 0.118652,-0.02966 0.06369,-0.01336 0.165364,-0.04725 0.02363,-0.0079 0.04775,-0.01437 0.07087,-0.02363 0.01635,-0.0065 0.03017,-0.01934 0.04725,-0.02363 0.01528,-0.0038 0.0315,0 0.04725,0 0.0315,0 0.063,0 0.09449,0 0.04725,0 0.09449,0 0.141741,0 0.05512,0 0.110243,0 0.165365,0 0.02362,0 0.04846,-0.0075 0.07087,0 0.02693,0.009 0.04477,0.03606 0.07087,0.04725 0.02984,0.01278 0.063,0.01574 0.09449,0.02363 0.0315,0.02363 0.05928,0.05326 0.09449,0.07087 0.02904,0.01453 0.06545,0.0091 0.09449,0.02363 0.03522,0.01762 0.06111,0.05 0.09449,0.07087 0.02986,0.01868 0.06744,0.02471 0.09449,0.04725 0.02181,0.01818 0.02717,0.05079 0.04725,0.07087 0.01245,0.01246 0.0348,0.01116 0.04725,0.02363 0.01245,0.01244 0.01386,0.0326 0.02362,0.04725 0.01853,0.0278 0.05082,0.04414 0.07087,0.07087 0.01056,0.01408 0.01386,0.03259 0.02363,0.04725 0.0062,0.0093 0.01745,0.01437 0.02362,0.02363 0.0277,0.04155 0.02804,0.0701 0.04725,0.118118 0.0065,0.01635 0.02017,0.02998 0.02362,0.04725 0.0046,0.02318 -0.0075,0.04846 0,0.07087 0.0025,0.0075 0.02172,-0.0076 0.02362,0 0.0076,0.03056 -0.01241,0.06554 0,0.09449 0.01316,0.03071 0.05368,0.04223 0.07087,0.07087 0.0081,0.01349 -0.0031,0.0318 0,0.04725 0.0049,0.02442 0.01249,0.0486 0.02362,0.07087 0.03602,0.07204 0.01873,-0.04321 0.04725,0.07087 0.0057,0.02291 -0.0075,0.04846 0,0.07087 0.0056,0.0167 0.01386,0.0326 0.02362,0.04725 0.0062,0.0093 0.0201,0.01307 0.02362,0.02363 0.005,0.01495 -0.0038,0.03197 0,0.04725 0.01713,0.06851 0.01843,0.02765 0.04725,0.07087 0.0098,0.01466 0.01386,0.0326 0.02362,0.04725 0.0062,0.0093 0.01745,0.01437 0.02362,0.02363 0.04475,-0.0027 0.01575,0.05512 0.02362,0.07087 0.02612,0.05223 0.01466,0.0073 0.04725,0.02363 0.01,0.005 0.01575,0.01574 0.02363,0.02363 0.02362,0.02363 0.04725,0.04725 0.07087,0.07087 0.0079,0.0079 0.01436,0.01744 0.02362,0.02363 0.01465,0.0098 0.03215,0.01455 0.04725,0.02363 0.02435,0.01461 0.04451,0.0367 0.07087,0.04725 0.01462,0.0058 0.03316,-0.007 0.04725,0 0.01992,0.01 0.02657,0.03898 0.04725,0.04725 0.02193,0.0088 0.04894,-0.0088 0.07087,0 0.02068,0.0083 0.02733,0.03728 0.04725,0.04725 0.01409,0.007 0.0318,-0.0031 0.04725,0 0.02442,0.0049 0.04645,0.01873 0.07087,0.02363 0.03861,0.0077 0.07951,-0.0077 0.118118,0 0.01727,0.0035 0.02988,0.02074 0.04725,0.02363 0.03107,0.0052 0.063,0 0.09449,0 0.03937,0 0.07891,-0.0036 0.118117,0 0.08369,-0.01125 0.15633,0.03926 0.236236,0.04725 0.04701,0.0047 0.09504,-0.0072 0.141741,0 0.05666,0.0087 0.108817,0.03782 0.165364,0.04725 0.03884,0.0065 0.07875,0 0.118118,0 0.07087,0 0.141741,0 0.212612,0 0.09449,0 0.188987,0 0.283482,0 0.0079,0 0.01575,0 0.02362,0 0.0079,0 0.02363,0.0079 0.02363,0 0,-0.05704 -0.02926,-0.0349 -0.04725,-0.07087 -0.01114,-0.02228 -0.01437,-0.04775 -0.02362,-0.07087 -0.0065,-0.01635 -0.02017,-0.02998 -0.02362,-0.04725 -0.0046,-0.02318 0.0039,-0.04757 0,-0.07087 -0.01119,-0.06716 -0.02521,-0.06304 -0.04725,-0.118118 -0.0092,-0.02313 -0.01575,-0.04725 -0.02362,-0.07087 -0.01575,-0.0315 -0.03337,-0.06212 -0.04725,-0.09449 -0.0098,-0.02289 -0.01575,-0.04725 -0.02362,-0.07087 -0.0079,-0.0315 -0.01084,-0.06465 -0.02362,-0.09449 -0.01118,-0.02609 -0.03455,-0.04548 -0.04725,-0.07087 -0.01888,-0.03776 -0.03716,-0.130043 -0.04725,-0.165365 -0.0068,-0.02395 -0.01953,-0.04631 -0.02362,-0.07087 -0.0039,-0.02331 0.0046,-0.04771 0,-0.07087 -0.0035,-0.01728 -0.01708,-0.0309 -0.02362,-0.04725 -0.0092,-0.02312 -0.01575,-0.04725 -0.02362,-0.07087 -0.0079,-0.02363 -0.01874,-0.04645 -0.02362,-0.07087 -0.01802,-0.0901 0.03347,-0.0039 -0.02362,-0.118118 -0.005,-0.0099 -0.02092,-0.01281 -0.02362,-0.02363 -0.0095,-0.0382 0.0095,-0.07992 0,-0.118118 -0.0043,-0.01709 -0.01935,-0.03017 -0.02362,-0.04725 -0.0076,-0.03056 0.0076,-0.06394 0,-0.09449 -0.0043,-0.01709 -0.01935,-0.03017 -0.02362,-0.04725 -0.0038,-0.01527 0,-0.0315 0,-0.04725 0,-0.01574 0,-0.0315 0,-0.04725 0,-0.04725 0,-0.09449 0,-0.14174 0,-0.08662 0,-0.173238 0,-0.25986 0,-0.02363 0,-0.04725 0,-0.07087 0,-0.01574 0.0031,-0.03181 0,-0.04725 -0.0049,-0.02442 -0.01953,-0.04631 -0.02362,-0.07087 -0.0039,-0.02331 0,-0.04725 0,-0.07087 0,-0.04725 0,-0.09449 0,-0.14174 0,-0.02363 0.0046,-0.04771 0,-0.07087 -0.0035,-0.01728 -0.01935,-0.03017 -0.02362,-0.04725 -0.0038,-0.01527 0.0026,-0.03171 0,-0.04725 -0.0053,-0.03203 -0.01829,-0.06247 -0.02363,-0.0945 -0.0026,-0.01553 0.0038,-0.03197 0,-0.04725 -0.0043,-0.01709 -0.01806,-0.03054 -0.02362,-0.04725 -0.0025,-0.0075 0.0025,-0.01617 0,-0.02363 -0.0056,-0.01669 -0.01935,-0.03016 -0.02362,-0.04725 -0.0038,-0.01527 0.007,-0.03316 0,-0.04725 -0.0035,-0.007 -0.0201,0.007 -0.02363,0 -0.007,-0.01408 0,-0.0315 0,-0.04725 -0.01575,-0.0079 -0.0348,-0.01116 -0.04725,-0.02363 -0.0056,-0.0056 0.0044,-0.01707 0,-0.02363 -0.01235,-0.01852 -0.03729,-0.02733 -0.04725,-0.04725 -0.007,-0.01408 0.007,-0.03316 0,-0.04725 -0.01417,-0.02835 -0.0567,-0.04252 -0.07087,-0.07087 -0.0035,-0.007 0.0035,-0.01659 0,-0.02363 -0.005,-0.0099 -0.01575,-0.01574 -0.02362,-0.02363 -0.01575,-0.01574 -0.02943,-0.03388 -0.04725,-0.04725 -0.01409,-0.01056 -0.0348,-0.01117 -0.04725,-0.02363 -0.0056,-0.0056 0.0056,-0.01804 0,-0.02363 -0.02064,-0.02064 -0.09967,-0.03802 -0.118118,-0.04725 -0.01,-0.005 -0.01407,-0.01789 -0.02362,-0.02363 -0.0302,-0.01812 -0.063,-0.0315 -0.0945,-0.04725 -0.01575,-0.0079 -0.02998,-0.02016 -0.04725,-0.02363 -0.03861,-0.0077 -0.07992,0.0096 -0.118118,0 -0.01708,-0.0043 -0.02998,-0.02016 -0.04725,-0.02363 -0.02316,-0.0046 -0.04757,0.0039 -0.07087,0 -0.02456,-0.0041 -0.04622,-0.02011 -0.07087,-0.02363 -0.03118,-0.0044 -0.063,0 -0.09449,0 -0.0315,0 -0.063,0 -0.09449,0 -0.08662,0 -0.173239,0 -0.259859,0 -0.02379,0 -0.128677,0.0044 -0.141741,0 -0.01056,-0.0035 -0.01306,-0.02011 -0.02362,-0.02363 -0.01494,-0.005 -0.0318,0.0031 -0.04725,0 -0.01215,-0.0024 -0.129591,-0.04481 -0.141742,-0.04725 -0.01544,-0.0031 -0.03262,0.0058 -0.04725,0 -0.02636,-0.01056 -0.04451,-0.0367 -0.07087,-0.04725 -0.01462,-0.0058 -0.03197,0.0038 -0.04725,0 -0.01708,-0.0043 -0.0315,-0.01574 -0.04725,-0.02363 -0.01575,-0.0079 -0.03215,-0.01455 -0.04725,-0.02363 -0.02435,-0.01461 -0.04548,-0.03455 -0.07087,-0.04725 -0.02227,-0.01114 -0.0486,-0.01249 -0.07087,-0.02363 -0.110926,-0.05546 -0.02972,-0.03551 -0.118118,-0.07087 -0.02312,-0.0093 -0.0486,-0.01249 -0.07087,-0.02363 -0.115622,-0.05781 -0.03023,-0.02858 -0.118118,-0.09449 -0.02817,-0.02114 -0.06519,-0.02771 -0.09449,-0.04725 -0.0327,-0.0218 -0.01454,-0.02545 -0.04725,-0.04725 -0.01465,-0.0098 -0.03316,-0.01304 -0.04725,-0.02363 -0.01782,-0.01336 -0.02733,-0.03729 -0.04725,-0.04725 -0.01409,-0.007 -0.03316,0.007 -0.04725,0 -0.007,-0.0035 0.0056,-0.01805 0,-0.02363 -0.01245,-0.01246 -0.03054,-0.01805 -0.04725,-0.02363 -0.0075,-0.0024 -0.01806,0.0056 -0.02362,0 -0.01245,-0.01246 -0.009,-0.03748 -0.02362,-0.04725 -0.0131,-0.0087 -0.03316,0.007 -0.04725,0 -0.007,-0.0035 0.0056,-0.01804 0,-0.02363 -0.01245,-0.01246 -0.0348,-0.01117 -0.04725,-0.02363 -0.01245,-0.01246 -0.01117,-0.0348 -0.02363,-0.04725 -0.0056,-0.0056 -0.01707,0.0044 -0.02362,0 -0.127443,-0.08496 0.01627,-0.0074 -0.07087,-0.09449 -0.01245,-0.01246 -0.0348,-0.01117 -0.04725,-0.02363 -0.01245,-0.01246 -0.01386,-0.0326 -0.02362,-0.04725 -0.01853,-0.0278 -0.05083,-0.04414 -0.07087,-0.07087 -0.01056,-0.01408 -0.01386,-0.03259 -0.02362,-0.04725 -0.0062,-0.0093 -0.01745,-0.01437 -0.02362,-0.02363 -0.02907,-0.04361 -0.0418,-0.09813 -0.07087,-0.141742 -0.0062,-0.0093 -0.01864,-0.01365 -0.02362,-0.02363 -0.0035,-0.007 0.0044,-0.01707 0,-0.02363 -0.01235,-0.01852 -0.03729,-0.02733 -0.04725,-0.04725 -0.007,-0.01408 0,-0.0315 0,-0.04725 -0.0079,-0.01574 -0.01386,-0.0326 -0.02363,-0.04725 -0.0062,-0.0093 -0.01745,-0.01437 -0.02362,-0.02363 -0.01953,-0.0293 -0.02771,-0.06519 -0.04725,-0.09449 -0.0062,-0.0093 -0.01745,-0.01437 -0.02362,-0.02363 -0.02623,-0.03934 -0.0435,-0.105248 -0.07087,-0.14174 -0.01336,-0.01781 -0.03388,-0.02943 -0.04725,-0.04725 -0.02113,-0.02817 -0.02612,-0.06632 -0.04725,-0.0945 -0.02673,-0.03563 -0.06667,-0.05971 -0.09449,-0.09449 -0.01774,-0.02217 -0.02951,-0.0487 -0.04725,-0.07087 -0.02783,-0.03478 -0.06598,-0.06027 -0.09449,-0.09449 -0.0252,-0.03025 -0.04303,-0.06665 -0.07087,-0.09449 -0.02008,-0.02008 -0.0487,-0.02951 -0.07087,-0.04725 -0.01739,-0.01392 -0.02986,-0.03334 -0.04725,-0.04725 -0.02217,-0.01773 -0.05079,-0.02717 -0.07087,-0.04725 -0.01245,-0.01243 -0.01117,-0.0348 -0.02362,-0.04725 -0.0249,-0.0249 -0.06632,-0.02611 -0.09449,-0.04725 -0.01782,-0.01336 -0.02943,-0.03388 -0.04725,-0.04725 -0.02817,-0.02114 -0.06632,-0.02611 -0.09449,-0.04725 -0.01782,-0.01336 -0.02815,-0.03579 -0.04725,-0.04725 -0.02135,-0.01281 -0.04775,-0.01437 -0.07087,-0.02363 -0.173799,-0.06952 0.11693,0.0311 -0.118118,-0.04725 -0.07087,-0.02363 -0.141741,-0.04725 -0.212611,-0.07087 -0.02362,-0.0079 -0.04645,-0.01873 -0.07087,-0.02363 -0.01544,-0.0031 -0.0318,0.0031 -0.04725,0 -0.02442,-0.0049 -0.04631,-0.01953 -0.07087,-0.02363 -0.0233,-0.0039 -0.04757,0.0039 -0.07087,0 -0.02456,-0.0041 -0.04631,-0.01953 -0.07087,-0.02363 -0.0233,-0.0039 -0.04757,0.0039 -0.07087,0 -0.02456,-0.0041 -0.04725,-0.01574 -0.07087,-0.02363 -0.03937,-0.0079 -0.07828,-0.01865 -0.118118,-0.02363 -0.02344,-0.0029 -0.04743,0.0029 -0.07087,0 -0.03984,-0.005 -0.07821,-0.01918 -0.118117,-0.02363 -0.06261,-0.007 -0.126377,0.007 -0.188988,0 -0.03991,-0.0044 -0.07813,-0.02 -0.118118,-0.02363 -0.04705,-0.0043 -0.09526,0.0084 -0.141741,0 -0.04172,-0.0076 -0.07629,-0.04028 -0.118118,-0.04725 -0.05437,-0.0091 -0.110242,0 -0.165364,0 -0.04725,0 -0.09449,0 -0.141741,0 -0.204737,0 -0.409474,0 -0.614212,0 -0.110242,0 -0.220486,0 -0.330729,0 -0.04725,0 -0.09449,0 -0.141741,0 -0.01575,0 -0.03262,-0.0058 -0.04725,0 -0.02636,0.01056 -0.04393,0.03827 -0.07087,0.04725 -0.02241,0.0075 -0.04771,-0.0046 -0.07087,0 -0.01727,0.0035 -0.03054,0.01804 -0.04725,0.02363 -0.0308,0.01027 -0.06328,0.01471 -0.09449,0.02363 -0.137111,0.03918 -0.01357,0.0054 -0.118118,0.04725 -0.02312,0.0093 -0.04952,0.01082 -0.07087,0.02363 -0.04059,0.02434 -0.101155,0.11739 -0.141741,0.141742 -0.02135,0.01281 -0.05326,0.006 -0.07087,0.02363 -0.01761,0.01762 -0.01081,0.04952 -0.02362,0.07087 -0.01146,0.0191 -0.0315,0.0315 -0.04725,0.04725 -0.01575,0.01574 -0.02986,0.03333 -0.04725,0.04725 -0.06821,0.05457 -0.06742,0.03112 -0.118118,0.09449 -0.01774,0.02217 -0.02951,0.0487 -0.04725,0.07087 -0.01391,0.01738 -0.03579,0.02815 -0.04725,0.04725 -0.01281,0.02135 -0.01437,0.04775 -0.02362,0.07087 -0.0065,0.01635 -0.01575,0.0315 -0.02362,0.04725 -0.01575,0.0315 -0.02978,0.06392 -0.04725,0.09449 -0.02817,0.0493 -0.0691,0.09095 -0.09449,0.141742 -0.01114,0.02228 -0.01438,0.04775 -0.02363,0.07087 -0.0065,0.01635 -0.01935,0.03016 -0.02362,0.04725 -0.0038,0.01527 0.0038,0.03197 0,0.04725 -0.0085,0.03416 -0.03871,0.06033 -0.04725,0.09449 -0.0038,0.01527 0.0038,0.03197 0,0.04725 -0.0043,0.01709 -0.01575,0.0315 -0.02362,0.04725 -0.0079,0.02363 -0.01874,0.04645 -0.02363,0.07087 -0.0031,0.01545 0.0031,0.0318 0,0.04725 -0.0049,0.02442 -0.01575,0.04725 -0.02362,0.07087 -0.0079,0.02363 -0.01249,0.0486 -0.02362,0.07087 -0.0127,0.0254 -0.03455,0.04548 -0.04725,0.07087 -0.02227,0.04454 -0.02497,0.0972 -0.04725,0.141742 -0.0127,0.0254 -0.03827,0.04393 -0.04725,0.07087 -0.0075,0.02241 0.0046,0.04771 0,0.07087 -0.007,0.035 -0.06162,0.104754 -0.07087,0.141743 -0.0038,0.01527 0.007,0.03316 0,0.04725 -0.01,0.01992 -0.03388,0.02943 -0.04725,0.04725 -0.01056,0.01408 -0.01575,0.0315 -0.02362,0.04725 -0.01575,0.01574 -0.03333,0.02985 -0.04725,0.04725 -0.03547,0.04434 -0.063,0.0945 -0.09449,0.141743 -0.01575,0.02363 -0.02717,0.0508 -0.04725,0.07087 -0.02008,0.02008 -0.05079,0.02717 -0.07087,0.04725 -0.01245,0.01246 -0.01117,0.03479 -0.02362,0.04725 -0.0056,0.0056 -0.01806,-0.0056 -0.02362,0 -0.0056,0.0056 0.0056,0.01805 0,0.02363 -0.01245,0.01246 -0.0348,0.01117 -0.04725,0.02363 -0.0056,0.0056 0.0056,0.01805 0,0.02363 -0.01245,0.01246 -0.0348,0.01117 -0.04725,0.02363 -0.01245,0.01246 -0.01117,0.03479 -0.02362,0.04725 -0.02363,0.01574 -0.04725,0.0315 -0.07087,0.04725 -0.0079,0 -0.01658,-0.0035 -0.02362,0 -0.0254,0.0127 -0.04548,0.03455 -0.07087,0.04725 -0.02227,0.01114 -0.05143,0.0081 -0.07087,0.02363 -0.02217,0.01773 -0.02363,0.05512 -0.04725,0.07087 -0.02702,0.01802 -0.06328,0.01471 -0.09449,0.02363 -0.02394,0.0069 -0.0486,0.01249 -0.07087,0.02363 -0.05079,0.0254 -0.09305,0.06528 -0.141741,0.09449 -0.103208,0.06193 0.0171,-0.02037 -0.118117,0.04725 -0.171641,0.08582 0.01372,0.0066 -0.118118,0.0945 -0.0293,0.01953 -0.063,0.0315 -0.09449,0.04725 -0.01575,0.0079 -0.0309,0.01709 -0.04725,0.02363 -0.02312,0.0093 -0.05015,0.0098 -0.07087,0.02363 -0.0278,0.01852 -0.04307,0.05234 -0.07087,0.07087 -0.04144,0.02763 -0.09903,0.02162 -0.141741,0.04725 -0.0191,0.01146 -0.02733,0.03729 -0.04725,0.04725 -0.02904,0.01453 -0.06369,0.01336 -0.09449,0.02363 -0.01671,0.0056 -0.0315,0.01574 -0.04725,0.02363 -0.04725,0.02363 -0.09319,0.05006 -0.141741,0.07087 -0.04578,0.01961 -0.0955,0.02875 -0.141741,0.04725 -0.01277,0.0051 -0.13601,0.06514 -0.141741,0.07087 -0.01245,0.01246 -0.0079,0.03937 -0.02363,0.04725 -0.02113,0.01056 -0.04771,-0.0046 -0.07087,0 -0.01727,0.0034 -0.0315,0.01574 -0.04725,0.02363 -0.01575,0.0079 -0.03316,0.01307 -0.04725,0.02363 -0.01782,0.01336 -0.02943,0.03388 -0.04725,0.04725 -0.09547,0.0716 -0.01122,0.0037 -0.07087,0.02363 -0.04961,0.01654 -0.09213,0.05433 -0.141741,0.07087 -0.0308,0.01027 -0.06266,0.01725 -0.09449,0.02363 -0.0077,0.0016 -0.01658,-0.0035 -0.02362,0 -0.0254,0.0127 -0.04451,0.0367 -0.07087,0.04725 -0.01462,0.0058 -0.03231,-0.005 -0.04725,0 -0.01057,0.0035 -0.01575,0.01574 -0.02363,0.02363 -0.01575,0 -0.03197,-0.0038 -0.04725,0 -0.114077,0.02852 0.0012,0.01122 -0.07087,0.04725 -0.01409,0.007 -0.03316,-0.007 -0.04725,0 -0.09832,0.04916 0.02525,-0.0016 -0.02362,0.04725 -0.01114,0.01114 -0.03414,-0.0087 -0.04725,0 -0.02726,0.01818 -0.04361,0.0527 -0.07087,0.07087 -0.01465,0.0098 -0.03316,0.01307 -0.04725,0.02363 -0.02673,0.02006 -0.04307,0.05234 -0.07087,0.07087 -0.01465,0.0098 -0.03748,0.009 -0.04725,0.02363 -0.0087,0.0131 0.0087,0.03414 0,0.04725 -0.01953,0.0293 -0.07496,0.01794 -0.09449,0.04725 -0.0087,0.0131 0.0087,0.03414 0,0.04725 -0.0098,0.01466 -0.03748,0.009 -0.04725,0.02363 -0.0087,0.0131 0.01114,0.03611 0,0.04725 -0.01114,0.01114 -0.03611,-0.01114 -0.04725,0 -0.01181,0.0118 0.0059,0.05315 0,0.07087 -0.0056,0.0167 -0.01935,0.03017 -0.02362,0.04725 -0.0038,0.01527 0.005,0.03231 0,0.04725 -0.03476,0.104278 -0.02362,-0.08583 -0.02362,0.07087 0,0.119713 0.007,-0.02817 -0.02363,0.0945 -0.0038,0.01527 0.005,0.03231 0,0.04725 -0.0035,0.01056 -0.0201,0.01307 -0.02362,0.02363 -0.0095,0.02858 0.008,0.109564 0,0.141743 -0.0043,0.01709 -0.01806,0.03054 -0.02362,0.04725 -0.0025,0.0075 0,0.01574 0,0.02363 0,0.01574 0,0.0315 0,0.04725 0,0.0315 0,0.06299 0,0.09449 0,0.01574 -0.0031,0.0318 0,0.04725 0.0049,0.02442 0.01874,0.04645 0.02362,0.07087 0.0031,0.01545 -0.0038,0.03197 0,0.04725 0.0043,0.01709 0.01935,0.03017 0.02362,0.04725 0.01746,0.06985 -0.02657,0.02757 0.02363,0.09449 0.01336,0.01783 0.0315,0.0315 0.04725,0.04725 0.0079,0.0079 0.0201,0.01307 0.02363,0.02363 0.005,0.01495 -0.005,0.03231 0,0.04725 0.0035,0.01056 0.01575,0.01574 0.02362,0.02363 0.0079,0.0079 0.01575,0.01574 0.02362,0.02363 0.01845,0.01844 0.05049,0.05728 0.07087,0.07087 0.01465,0.0098 0.0315,0.01574 0.04725,0.02363 0.0315,0.01574 0.063,0.0315 0.09449,0.04725 0.01575,0.0079 0.0315,0.01574 0.04725,0.02363 0.01575,0.0079 0.03017,0.01934 0.04725,0.02363 0.01528,0.0038 0.03197,-0.0038 0.04725,0 0.03416,0.0085 0.05996,0.04034 0.09449,0.04725 0.03861,0.0077 0.07874,0 0.118117,0 0.01575,0 0.03197,-0.0038 0.04725,0 0.01708,0.0043 0.03017,0.01934 0.04725,0.02363 0.01528,0.0038 0.0315,0 0.04725,0 0.03937,0 0.07874,0 0.118117,0"
         id="path835"
         inkscape:connector-curvature="0" />
    </g>
    <text
       id="text844"
       y="27.592316"
       x="11.22532"
       style="font-style:normal;font-weight:normal;font-size:10.5833px;line-height:1.25;font-family:sans-serif;letter-spacing:0px;word-spacing:0px;fill:#000000;fill-opacity:1;stroke:none;stroke-width:0.264583"
       xml:space="preserve"><tspan
         style="stroke-width:0.264583"
         y="27.592316"
         x="11.22532"
         id="tspan842"
         sodipodi:role="line">Manter</tspan></text>
    <text
       id="text848"
       y="40.955791"
       x="11.492589"
       style="font-style:normal;font-weight:normal;font-size:10.5833px;line-height:1.25;font-family:sans-serif;letter-spacing:0px;word-spacing:0px;fill:#000000;fill-opacity:1;stroke:none;stroke-width:0.264583"
       xml:space="preserve"><tspan
         style="stroke-width:0.264583"
         y="40.955791"
         x="11.492589"
         id="tspan846"
         sodipodi:role="line">Acelerar</tspan></text>
    <text
       id="text852"
       y="55.655617"
       x="11.759859"
       style="font-style:normal;font-weight:normal;font-size:10.5833px;line-height:1.25;font-family:sans-serif;letter-spacing:0px;word-spacing:0px;fill:#000000;fill-opacity:1;stroke:none;stroke-width:0.264583"
       xml:space="preserve"><tspan
         style="stroke-width:0.264583"
         y="55.655617"
         x="11.759859"
         id="tspan850"
         sodipodi:role="line">Desacelerar</tspan></text>
    <path
       inkscape:connector-curvature="0"
       id="path854"
       d="M 7.2162772,159.35619 189.76136,158.01984"
       style="fill:none;stroke:#000000;stroke-width:0.26458332px;stroke-linecap:butt;stroke-linejoin:miter;stroke-opacity:1" />
    <path
       inkscape:connector-curvature="0"
       id="path856"
       d="M 6.6817382,168.9779 189.22682,167.10701"
       style="fill:none;stroke:#000000;stroke-width:0.26458332px;stroke-linecap:butt;stroke-linejoin:miter;stroke-opacity:1" />
    <path
       inkscape:connector-curvature="0"
       id="path858"
       d="M 8.0180856,180.73775 190.02863,176.19417"
       style="fill:none;stroke:#000000;stroke-width:0.26458332px;stroke-linecap:butt;stroke-linejoin:miter;stroke-opacity:1" />
    <path
       inkscape:connector-curvature="0"
       id="path860"
       d="M 8.0180856,193.03215 189.22682,187.95403"
       style="fill:none;stroke:#000000;stroke-width:0.26458332px;stroke-linecap:butt;stroke-linejoin:miter;stroke-opacity:1" />
    <path
       inkscape:connector-curvature="0"
       id="path862"
       d="m 21.381562,148.93268 0.267269,53.98844"
       style="fill:none;stroke:#000000;stroke-width:0.26458332px;stroke-linecap:butt;stroke-linejoin:miter;stroke-opacity:1" />
    <path
       inkscape:connector-curvature="0"
       id="path864"
       d="m 32.606882,149.19995 0.53454,53.18663"
       style="fill:none;stroke:#000000;stroke-width:0.26458332px;stroke-linecap:butt;stroke-linejoin:miter;stroke-opacity:1" />
    <path
       inkscape:connector-curvature="0"
       id="path866"
       d="m 44.36674,149.46722 0.267272,52.65209"
       style="fill:none;stroke:#000000;stroke-width:0.26458332px;stroke-linecap:butt;stroke-linejoin:miter;stroke-opacity:1" />
    <path
       inkscape:connector-curvature="0"
       id="path868"
       d="m 57.195677,149.19995 0.267271,53.18663"
       style="fill:none;stroke:#000000;stroke-width:0.26458332px;stroke-linecap:butt;stroke-linejoin:miter;stroke-opacity:1" />
    <path
       inkscape:connector-curvature="0"
       id="path862-3"
       d="m 70.42552,149.73449 0.267269,53.98844"
       style="fill:none;stroke:#000000;stroke-width:0.26458332px;stroke-linecap:butt;stroke-linejoin:miter;stroke-opacity:1" />
    <path
       inkscape:connector-curvature="0"
       id="path864-6"
       d="m 81.65084,150.00176 0.53454,53.18663"
       style="fill:none;stroke:#000000;stroke-width:0.26458332px;stroke-linecap:butt;stroke-linejoin:miter;stroke-opacity:1" />
    <path
       inkscape:connector-curvature="0"
       id="path866-7"
       d="m 93.410698,150.26903 0.267272,52.65209"
       style="fill:none;stroke:#000000;stroke-width:0.26458332px;stroke-linecap:butt;stroke-linejoin:miter;stroke-opacity:1" />
    <path
       inkscape:connector-curvature="0"
       id="path868-5"
       d="m 106.23964,150.00176 0.26727,53.18663"
       style="fill:none;stroke:#000000;stroke-width:0.26458332px;stroke-linecap:butt;stroke-linejoin:miter;stroke-opacity:1" />
    <path
       inkscape:connector-curvature="0"
       id="path862-35"
       d="m 118.53404,149.46722 0.26726,53.98844"
       style="fill:none;stroke:#000000;stroke-width:0.26458332px;stroke-linecap:butt;stroke-linejoin:miter;stroke-opacity:1" />
    <path
       inkscape:connector-curvature="0"
       id="path864-62"
       d="m 129.75936,149.73449 0.53454,53.18664"
       style="fill:none;stroke:#000000;stroke-width:0.26458332px;stroke-linecap:butt;stroke-linejoin:miter;stroke-opacity:1" />
    <path
       inkscape:connector-curvature="0"
       id="path866-9"
       d="m 141.51921,150.00176 0.26728,52.65209"
       style="fill:none;stroke:#000000;stroke-width:0.26458332px;stroke-linecap:butt;stroke-linejoin:miter;stroke-opacity:1" />
    <path
       inkscape:connector-curvature="0"
       id="path868-1"
       d="m 154.34815,149.73449 0.26727,53.18664"
       style="fill:none;stroke:#000000;stroke-width:0.26458332px;stroke-linecap:butt;stroke-linejoin:miter;stroke-opacity:1" />
    <text
       id="text908"
       y="144.65636"
       x="12.561668"
       style="font-style:normal;font-weight:normal;font-size:10.5833px;line-height:1.25;font-family:sans-serif;letter-spacing:0px;word-spacing:0px;fill:#000000;fill-opacity:1;stroke:none;stroke-width:0.264583"
       xml:space="preserve"><tspan
         style="stroke-width:0.264583"
         y="144.65636"
         x="12.561668"
         id="tspan906"
         sodipodi:role="line">0</tspan></text>
    <text
       id="text912"
       y="167.10701"
       x="1.6036171"
       style="font-style:normal;font-weight:normal;font-size:10.5833px;line-height:1.25;font-family:sans-serif;letter-spacing:0px;word-spacing:0px;fill:#000000;fill-opacity:1;stroke:none;stroke-width:0.264583"
       xml:space="preserve"><tspan
         style="stroke-width:0.264583"
         y="167.10701"
         x="1.6036171"
         id="tspan910"
         sodipodi:role="line">1</tspan></text>
    <text
       id="text916"
       y="176.7287"
       x="0.53453869"
       style="font-style:normal;font-weight:normal;font-size:10.5833px;line-height:1.25;font-family:sans-serif;letter-spacing:0px;word-spacing:0px;fill:#000000;fill-opacity:1;stroke:none;stroke-width:0.264583"
       xml:space="preserve"><tspan
         style="stroke-width:0.264583"
         y="176.7287"
         x="0.53453869"
         id="tspan914"
         sodipodi:role="line">2</tspan></text>
    <text
       id="text920"
       y="187.68675"
       x="1.069078"
       style="font-style:normal;font-weight:normal;font-size:10.5833px;line-height:1.25;font-family:sans-serif;letter-spacing:0px;word-spacing:0px;fill:#000000;fill-opacity:1;stroke:none;stroke-width:0.264583"
       xml:space="preserve"><tspan
         style="stroke-width:0.264583"
         y="187.68675"
         x="1.069078"
         id="tspan918"
         sodipodi:role="line">3</tspan></text>
    <text
       id="text924"
       y="202.38658"
       x="1.3363479"
       style="font-style:normal;font-weight:normal;font-size:10.5833px;line-height:1.25;font-family:sans-serif;letter-spacing:0px;word-spacing:0px;fill:#000000;fill-opacity:1;stroke:none;stroke-width:0.264583"
       xml:space="preserve"><tspan
         style="stroke-width:0.264583"
         y="202.38658"
         x="1.3363479"
         id="tspan922"
         sodipodi:role="line">4</tspan></text>
    <text
       id="text928"
       y="145.1909"
       x="22.450642"
       style="font-style:normal;font-weight:normal;font-size:10.5833px;line-height:1.25;font-family:sans-serif;letter-spacing:0px;word-spacing:0px;fill:#000000;fill-opacity:1;stroke:none;stroke-width:0.264583"
       xml:space="preserve"><tspan
         style="stroke-width:0.264583"
         y="145.1909"
         x="22.450642"
         id="tspan926"
         sodipodi:role="line">1</tspan></text>
    <text
       id="text932"
       y="146.52725"
       x="36.348656"
       style="font-style:normal;font-weight:normal;font-size:10.5833px;line-height:1.25;font-family:sans-serif;letter-spacing:0px;word-spacing:0px;fill:#000000;fill-opacity:1;stroke:none;stroke-width:0.264583"
       xml:space="preserve"><tspan
         style="stroke-width:0.264583"
         y="146.52725"
         x="36.348656"
         id="tspan930"
         sodipodi:role="line">2</tspan></text>
    <text
       id="text936"
       y="145.72545"
       x="48.108517"
       style="font-style:normal;font-weight:normal;font-size:10.5833px;line-height:1.25;font-family:sans-serif;letter-spacing:0px;word-spacing:0px;fill:#000000;fill-opacity:1;stroke:none;stroke-width:0.264583"
       xml:space="preserve"><tspan
         style="stroke-width:0.264583"
         y="145.72545"
         x="48.108517"
         id="tspan934"
         sodipodi:role="line">3</tspan></text>
    <text
       id="text940"
       y="146.52725"
       x="61.20472"
       style="font-style:normal;font-weight:normal;font-size:10.5833px;line-height:1.25;font-family:sans-serif;letter-spacing:0px;word-spacing:0px;fill:#000000;fill-opacity:1;stroke:none;stroke-width:0.264583"
       xml:space="preserve"><tspan
         style="stroke-width:0.264583"
         y="146.52725"
         x="61.20472"
         id="tspan938"
         sodipodi:role="line">4</tspan></text>
    <text
       id="text944"
       y="146.79454"
       x="73.499115"
       style="font-style:normal;font-weight:normal;font-size:10.5833px;line-height:1.25;font-family:sans-serif;letter-spacing:0px;word-spacing:0px;fill:#000000;fill-opacity:1;stroke:none;stroke-width:0.264583"
       xml:space="preserve"><tspan
         style="stroke-width:0.264583"
         y="146.79454"
         x="73.499115"
         id="tspan942"
         sodipodi:role="line">5</tspan></text>
    <text
       id="text948"
       y="146.25998"
       x="85.526245"
       style="font-style:normal;font-weight:normal;font-size:10.5833px;line-height:1.25;font-family:sans-serif;letter-spacing:0px;word-spacing:0px;fill:#000000;fill-opacity:1;stroke:none;stroke-width:0.264583"
       xml:space="preserve"><tspan
         style="stroke-width:0.264583"
         y="146.25998"
         x="85.526245"
         id="tspan946"
         sodipodi:role="line">6</tspan></text>
    <text
       id="text952"
       y="146.25998"
       x="96.484299"
       style="font-style:normal;font-weight:normal;font-size:10.5833px;line-height:1.25;font-family:sans-serif;letter-spacing:0px;word-spacing:0px;fill:#000000;fill-opacity:1;stroke:none;stroke-width:0.264583"
       xml:space="preserve"><tspan
         style="stroke-width:0.264583"
         y="146.25998"
         x="96.484299"
         id="tspan950"
         sodipodi:role="line">7</tspan></text>
    <text
       id="text956"
       y="145.1909"
       x="110.38231"
       style="font-style:normal;font-weight:normal;font-size:10.5833px;line-height:1.25;font-family:sans-serif;letter-spacing:0px;word-spacing:0px;fill:#000000;fill-opacity:1;stroke:none;stroke-width:0.264583"
       xml:space="preserve"><tspan
         style="stroke-width:0.264583"
         y="145.1909"
         x="110.38231"
         id="tspan954"
         sodipodi:role="line">8</tspan></text>
    <text
       id="text960"
       y="145.72545"
       x="121.07309"
       style="font-style:normal;font-weight:normal;font-size:10.5833px;line-height:1.25;font-family:sans-serif;letter-spacing:0px;word-spacing:0px;fill:#000000;fill-opacity:1;stroke:none;stroke-width:0.264583"
       xml:space="preserve"><tspan
         style="stroke-width:0.264583"
         y="145.72545"
         x="121.07309"
         id="tspan958"
         sodipodi:role="line">9</tspan></text>
    <text
       id="text964"
       y="144.92365"
       x="128.55663"
       style="font-style:normal;font-weight:normal;font-size:10.5833px;line-height:1.25;font-family:sans-serif;letter-spacing:0px;word-spacing:0px;fill:#000000;fill-opacity:1;stroke:none;stroke-width:0.264583"
       xml:space="preserve"><tspan
         style="stroke-width:0.264583"
         y="144.92365"
         x="128.55663"
         id="tspan962"
         sodipodi:role="line">10</tspan></text>
    <text
       id="text968"
       y="146.52725"
       x="140.58377"
       style="font-style:normal;font-weight:normal;font-size:10.5833px;line-height:1.25;font-family:sans-serif;letter-spacing:0px;word-spacing:0px;fill:#000000;fill-opacity:1;stroke:none;stroke-width:0.264583"
       xml:space="preserve"><tspan
         style="stroke-width:0.264583"
         y="146.52725"
         x="140.58377"
         id="tspan966"
         sodipodi:role="line">11</tspan></text>
    <text
       id="text972"
       y="134.50014"
       x="11.759859"
       style="font-style:normal;font-weight:normal;font-size:10.5833px;line-height:1.25;font-family:sans-serif;letter-spacing:0px;word-spacing:0px;fill:#000000;fill-opacity:1;stroke:none;stroke-width:0.264583"
       xml:space="preserve"><tspan
         style="stroke-width:0.264583"
         y="134.50014"
         x="11.759859"
         id="tspan970"
         sodipodi:role="line">p</tspan></text>
    <text
       id="text976"
       y="146.52725"
       x="6.4144688"
       style="font-style:normal;font-weight:normal;font-size:10.5833px;line-height:1.25;font-family:sans-serif;letter-spacing:0px;word-spacing:0px;fill:#000000;fill-opacity:1;stroke:none;stroke-width:0.264583"
       xml:space="preserve"><tspan
         style="stroke-width:0.264583"
         y="146.52725"
         x="6.4144688"
         id="tspan974"
         sodipodi:role="line">v</tspan></text>
    <text
       id="text980"
       y="114.98945"
       x="41.159508"
       style="font-style:normal;font-weight:normal;font-size:10.5833px;line-height:1.25;font-family:sans-serif;letter-spacing:0px;word-spacing:0px;fill:#000000;fill-opacity:1;stroke:none;stroke-width:0.264583"
       xml:space="preserve"><tspan
         style="stroke-width:0.264583"
         y="114.98945"
         x="41.159508"
         id="tspan978"
         sodipodi:role="line">11</tspan></text>
    <text
       id="text984"
       y="118.73122"
       x="143.25647"
       style="font-style:normal;font-weight:normal;font-size:10.5833px;line-height:1.25;font-family:sans-serif;letter-spacing:0px;word-spacing:0px;fill:#000000;fill-opacity:1;stroke:none;stroke-width:0.264583"
       xml:space="preserve"><tspan
         style="stroke-width:0.264583"
         y="118.73122"
         x="143.25647"
         id="tspan982"
         sodipodi:role="line">4</tspan></text>
    <text
       id="text988"
       y="199.98116"
       x="143.25645"
       style="font-style:normal;font-weight:normal;font-size:10.5833px;line-height:1.25;font-family:sans-serif;letter-spacing:0px;word-spacing:0px;fill:#000000;fill-opacity:1;stroke:none;stroke-width:0.264583"
       xml:space="preserve"><tspan
         style="stroke-width:0.264583"
         y="199.98116"
         x="143.25645"
         id="tspan986"
         sodipodi:role="line">O</tspan></text>
    <text
       id="text992"
       y="200.51569"
       x="95.415222"
       style="font-style:normal;font-weight:normal;font-size:10.5833px;line-height:1.25;font-family:sans-serif;letter-spacing:0px;word-spacing:0px;fill:#000000;fill-opacity:1;stroke:none;stroke-width:0.264583"
       xml:space="preserve"><tspan
         style="stroke-width:0.264583"
         y="200.51569"
         x="95.415222"
         id="tspan990"
         sodipodi:role="line">M</tspan></text>
    <text
       id="text996"
       y="189.39052"
       x="96.402649"
       style="font-style:normal;font-weight:normal;font-size:10.5833px;line-height:1.25;font-family:sans-serif;letter-spacing:0px;word-spacing:0px;fill:#000000;fill-opacity:1;stroke:none;stroke-width:0.264583"
       xml:space="preserve"><tspan
         style="stroke-width:0.264583"
         y="189.39052"
         x="96.402649"
         id="tspan994"
         sodipodi:role="line">A</tspan></text>
    <text
       id="text1000"
       y="214.14644"
       x="95.548859"
       style="font-style:normal;font-weight:normal;font-size:10.5833px;line-height:1.25;font-family:sans-serif;letter-spacing:0px;word-spacing:0px;fill:#000000;fill-opacity:1;stroke:none;stroke-width:0.264583"
       xml:space="preserve"><tspan
         style="stroke-width:0.264583"
         y="214.14644"
         x="95.548859"
         id="tspan998"
         sodipodi:role="line">D</tspan></text>
    <path
       inkscape:connector-curvature="0"
       id="path1002"
       d="M 8.8198943,206.39563 195.37402,203.72293"
       style="fill:none;stroke:#000000;stroke-width:0.26458332px;stroke-linecap:butt;stroke-linejoin:miter;stroke-opacity:1" />
    <text
       id="text1006"
       y="213.87917"
       x="1.8708863"
       style="font-style:normal;font-weight:normal;font-size:10.5833px;line-height:1.25;font-family:sans-serif;letter-spacing:0px;word-spacing:0px;fill:#000000;fill-opacity:1;stroke:none;stroke-width:0.264583"
       xml:space="preserve"><tspan
         style="stroke-width:0.264583"
         y="213.87917"
         x="1.8708863"
         id="tspan1004"
         sodipodi:role="line">5</tspan></text>
    <text
       id="text1046"
       y="153.47626"
       x="3.2072344"
       style="font-style:normal;font-weight:normal;font-size:10.5833px;line-height:1.25;font-family:sans-serif;letter-spacing:0px;word-spacing:0px;fill:#000000;fill-opacity:1;stroke:none;stroke-width:0.264583"
       xml:space="preserve"><tspan
         style="stroke-width:0.264583"
         y="153.47626"
         x="3.2072344"
         id="tspan1044"
         sodipodi:role="line">0</tspan></text>
    <text
       id="text1104"
       y="110.44586"
       x="-87.664398"
       style="font-style:normal;font-weight:normal;font-size:10.5833px;line-height:1.25;font-family:sans-serif;letter-spacing:0px;word-spacing:0px;fill:#000000;fill-opacity:1;stroke:none;stroke-width:0.264583"
       xml:space="preserve"><tspan
         style="stroke-width:0.264583"
         y="110.44586"
         x="-87.664398"
         id="tspan1102"
         sodipodi:role="line">AMAAMA</tspan></text>
    <text
       xml:space="preserve"
       style="font-style:normal;font-weight:normal;font-size:10.5833px;line-height:1.25;font-family:sans-serif;letter-spacing:0px;word-spacing:0px;fill:#000000;fill-opacity:1;stroke:none;stroke-width:0.264583"
       x="58.858887"
       y="190.5976"
       id="text992-3"><tspan
         sodipodi:role="line"
         id="tspan990-6"
         x="58.858887"
         y="190.5976"
         style="stroke-width:0.264583">M</tspan></text>
    <text
       xml:space="preserve"
       style="font-style:normal;font-weight:normal;font-size:10.5833px;line-height:1.25;font-family:sans-serif;letter-spacing:0px;word-spacing:0px;fill:#000000;fill-opacity:1;stroke:none;stroke-width:0.264583"
       x="59.654034"
       y="178.19193"
       id="text996-7"><tspan
         sodipodi:role="line"
         id="tspan994-5"
         x="59.654034"
         y="178.19193"
         style="stroke-width:0.264583">A</tspan></text>
    <text
       xml:space="preserve"
       style="font-style:normal;font-weight:normal;font-size:10.5833px;line-height:1.25;font-family:sans-serif;letter-spacing:0px;word-spacing:0px;fill:#000000;fill-opacity:1;stroke:none;stroke-width:0.264583"
       x="59.261005"
       y="201.77112"
       id="text1000-3"><tspan
         sodipodi:role="line"
         id="tspan998-5"
         x="59.261005"
         y="201.77112"
         style="stroke-width:0.264583">D</tspan></text>
    <text
       id="text996-7-6"
       y="168.06615"
       x="34.775101"
       style="font-style:normal;font-weight:normal;font-size:10.5833px;line-height:1.25;font-family:sans-serif;letter-spacing:0px;word-spacing:0px;fill:#000000;fill-opacity:1;stroke:none;stroke-width:0.264583"
       xml:space="preserve"><tspan
         style="stroke-width:0.264583"
         y="168.06615"
         x="34.775101"
         id="tspan994-5-2"
         sodipodi:role="line">A</tspan></text>
    <text
       id="text992-3-9"
       y="178.36461"
       x="33.885277"
       style="font-style:normal;font-weight:normal;font-size:10.5833px;line-height:1.25;font-family:sans-serif;letter-spacing:0px;word-spacing:0px;fill:#000000;fill-opacity:1;stroke:none;stroke-width:0.264583"
       xml:space="preserve"><tspan
         style="stroke-width:0.264583"
         y="178.36461"
         x="33.885277"
         id="tspan990-6-1"
         sodipodi:role="line">M</tspan></text>
    <text
       id="text1000-3-2"
       y="189.73244"
       x="34.339069"
       style="font-style:normal;font-weight:normal;font-size:10.5833px;line-height:1.25;font-family:sans-serif;letter-spacing:0px;word-spacing:0px;fill:#000000;fill-opacity:1;stroke:none;stroke-width:0.264583"
       xml:space="preserve"><tspan
         style="stroke-width:0.264583"
         y="189.73244"
         x="34.339069"
         id="tspan998-5-7"
         sodipodi:role="line">D</tspan></text>
    <text
       xml:space="preserve"
       style="font-style:normal;font-weight:normal;font-size:10.5833px;line-height:1.25;font-family:sans-serif;letter-spacing:0px;word-spacing:0px;fill:#000000;fill-opacity:1;stroke:none;stroke-width:0.264583"
       x="23.128462"
       y="157.93941"
       id="text996-7-6-0"><tspan
         sodipodi:role="line"
         id="tspan994-5-2-9"
         x="23.128462"
         y="157.93941"
         style="stroke-width:0.264583">A</tspan></text>
    <text
       xml:space="preserve"
       style="font-style:normal;font-weight:normal;font-size:10.5833px;line-height:1.25;font-family:sans-serif;letter-spacing:0px;word-spacing:0px;fill:#000000;fill-opacity:1;stroke:none;stroke-width:0.264583"
       x="22.409168"
       y="168.12892"
       id="text992-3-9-3"><tspan
         sodipodi:role="line"
         id="tspan990-6-1-6"
         x="22.409168"
         y="168.12892"
         style="stroke-width:0.264583">M</tspan></text>
    <text
       xml:space="preserve"
       style="font-style:normal;font-weight:normal;font-size:10.5833px;line-height:1.25;font-family:sans-serif;letter-spacing:0px;word-spacing:0px;fill:#000000;fill-opacity:1;stroke:none;stroke-width:0.264583"
       x="22.912966"
       y="178.51968"
       id="text1000-3-2-0"><tspan
         sodipodi:role="line"
         id="tspan998-5-7-6"
         x="22.912966"
         y="178.51968"
         style="stroke-width:0.264583">D</tspan></text>
    <text
       id="text992-3-9-3-2"
       y="168.20029"
       x="10.272246"
       style="font-style:normal;font-weight:normal;font-size:10.5833px;line-height:1.25;font-family:sans-serif;letter-spacing:0px;word-spacing:0px;fill:#000000;fill-opacity:1;stroke:none;stroke-width:0.264583"
       xml:space="preserve"><tspan
         style="stroke-width:0.264583"
         y="168.20029"
         x="10.272246"
         id="tspan990-6-1-6-6"
         sodipodi:role="line">M</tspan></text>
    <text
       id="text996-7-6-0-1"
       y="157.41776"
       x="10.832968"
       style="font-style:normal;font-weight:normal;font-size:10.5833px;line-height:1.25;font-family:sans-serif;letter-spacing:0px;word-spacing:0px;fill:#000000;fill-opacity:1;stroke:none;stroke-width:0.264583"
       xml:space="preserve"><tspan
         style="stroke-width:0.264583"
         y="157.41776"
         x="10.832968"
         id="tspan994-5-2-9-8"
         sodipodi:role="line">A</tspan></text>
    <text
       id="text1000-3-2-0-7"
       y="178.87737"
       x="10.798004"
       style="font-style:normal;font-weight:normal;font-size:10.5833px;line-height:1.25;font-family:sans-serif;letter-spacing:0px;word-spacing:0px;fill:#000000;fill-opacity:1;stroke:none;stroke-width:0.264583"
       xml:space="preserve"><tspan
         style="stroke-width:0.264583"
         y="178.87737"
         x="10.798004"
         id="tspan998-5-7-6-9"
         sodipodi:role="line">D</tspan></text>
    <path
       id="path343"
       d="m 103.84297,211.08497 43.17633,-14.64314 -42.10333,-0.86577"
       style="fill:none;stroke:#000000;stroke-width:0.264583px;stroke-linecap:butt;stroke-linejoin:miter;stroke-opacity:1" />
    <path
       id="path345"
       d="M 147.0193,196.44183 103.37494,184.92748"
       style="fill:#ff0000;stroke:#ff0000;stroke-width:0.264583px;stroke-linecap:butt;stroke-linejoin:miter;stroke-opacity:1" />
    <path
       id="path349"
       d="M 96.833996,186.04262 68.03055,199.73702"
       style="fill:none;stroke:#000000;stroke-width:0.264583px;stroke-linecap:butt;stroke-linejoin:miter;stroke-opacity:1" />
    <path
       id="path353"
       d="M 59.56374,175.00813 42.295003,186.60236"
       style="fill:none;stroke:#000000;stroke-width:0.264583px;stroke-linecap:butt;stroke-linejoin:miter;stroke-opacity:1" />
    <path
       id="path357"
       d="m 34.88061,163.92485 -3.336424,11.16636"
       style="fill:none;stroke:#000000;stroke-width:0.264583px;stroke-linecap:butt;stroke-linejoin:miter;stroke-opacity:1" />
    <path
       id="path361"
       d="m 22.652205,164.77161 -3.140522,9.33519"
       style="fill:none;stroke:#000000;stroke-width:0.264583px;stroke-linecap:butt;stroke-linejoin:miter;stroke-opacity:1" />
    <path
       id="path363"
       d="m 96.833996,186.04262 -27.897357,0.7672"
       style="fill:none;stroke:#000000;stroke-width:0.264583px;stroke-linecap:butt;stroke-linejoin:miter;stroke-opacity:1" />
    <path
       id="path365"
       d="M 96.833996,186.04262 66.882615,174.44914"
       style="fill:#ff0000;stroke:#ff0000;stroke-width:0.264583px;stroke-linecap:butt;stroke-linejoin:miter;stroke-opacity:1" />
    <path
       id="path367"
       d="m 59.56374,175.00813 -16.6586,0.26371"
       style="fill:none;stroke:#000000;stroke-width:0.264583px;stroke-linecap:butt;stroke-linejoin:miter;stroke-opacity:1" />
    <path
       id="path369"
       d="M 62.46682,172.96211 41.907153,165.0281"
       style="fill:#ff0000;stroke:#ff0000;stroke-width:0.264583px;stroke-linecap:butt;stroke-linejoin:miter;stroke-opacity:1" />
    <path
       id="path371"
       d="m 37.89105,164.98559 -6.631149,-0.39924"
       style="fill:#ff0000;stroke:#ff0000;stroke-width:0.264583px;stroke-linecap:butt;stroke-linejoin:miter;stroke-opacity:1" />
    <path
       id="path373"
       d="m 37.733298,161.14691 -7.765817,-6.46429"
       style="fill:none;stroke:#000000;stroke-width:0.264583px;stroke-linecap:butt;stroke-linejoin:miter;stroke-opacity:1" />
    <path
       id="path375"
       d="m 22.652205,164.77161 -3.172145,0.13434"
       style="fill:none;stroke:#000000;stroke-width:0.264583px;stroke-linecap:butt;stroke-linejoin:miter;stroke-opacity:1" />
    <path
       id="path377"
       d="M 26.559375,164.19037 17.400622,153.08382"
       style="fill:#ff0000;stroke:#ff0000;stroke-width:0.264583px;stroke-linecap:butt;stroke-linejoin:miter;stroke-opacity:1" />
  </g>
</svg>
