<?xml version="1.0" encoding="UTF-8" standalone="no"?>
<!-- Created with Inkscape (http://www.inkscape.org/) -->

<svg
   xmlns:dc="http://purl.org/dc/elements/1.1/"
   xmlns:cc="http://creativecommons.org/ns#"
   xmlns:rdf="http://www.w3.org/1999/02/22-rdf-syntax-ns#"
   xmlns:svg="http://www.w3.org/2000/svg"
   xmlns="http://www.w3.org/2000/svg"
   xmlns:sodipodi="http://sodipodi.sourceforge.net/DTD/sodipodi-0.dtd"
   xmlns:inkscape="http://www.inkscape.org/namespaces/inkscape"
   width="210mm"
   height="297mm"
   viewBox="0 0 210 297"
   version="1.1"
   id="svg8"
   inkscape:version="0.92.4 (unknown)"
   sodipodi:docname="lista01.2.3.svg">
  <defs
     id="defs2" />
  <sodipodi:namedview
     id="base"
     pagecolor="#ffffff"
     bordercolor="#666666"
     borderopacity="1.0"
     inkscape:pageopacity="0.0"
     inkscape:pageshadow="2"
     inkscape:zoom="0.49497475"
     inkscape:cx="577.29206"
     inkscape:cy="305.08391"
     inkscape:document-units="mm"
     inkscape:current-layer="layer1"
     showgrid="false"
     inkscape:window-width="1920"
     inkscape:window-height="1025"
     inkscape:window-x="0"
     inkscape:window-y="27"
     inkscape:window-maximized="1">
    <inkscape:grid
       type="xygrid"
       id="grid821" />
  </sodipodi:namedview>
  <metadata
     id="metadata5">
    <rdf:RDF>
      <cc:Work
         rdf:about="">
        <dc:format>image/svg+xml</dc:format>
        <dc:type
           rdf:resource="http://purl.org/dc/dcmitype/StillImage" />
        <dc:title></dc:title>
      </cc:Work>
    </rdf:RDF>
  </metadata>
  <g
     inkscape:label="Layer 1"
     inkscape:groupmode="layer"
     id="layer1">
    <text
       xml:space="preserve"
       style="font-style:normal;font-weight:normal;font-size:10.58333302px;line-height:1.25;font-family:sans-serif;letter-spacing:0px;word-spacing:0px;fill:#000000;fill-opacity:1;stroke:none;stroke-width:0.26458332"
       x="4.1577382"
       y="3.5014877"
       id="text817"><tspan
         sodipodi:role="line"
         id="tspan815"
         x="4.1577382"
         y="3.5014877"
         style="stroke-width:0.26458332">Lista 01 2.3</tspan></text>
    <rect
       style="fill:none;stroke:#000000;stroke-width:0.82800001;stroke-miterlimit:4;stroke-dasharray:none;stroke-opacity:1"
       id="rect819"
       width="27.025299"
       height="52.916664"
       x="8.1415482"
       y="45.078869" />
    <rect
       style="fill:none;stroke:#000000;stroke-width:0.82800001;stroke-miterlimit:4;stroke-dasharray:none;stroke-opacity:1"
       id="rect823"
       width="24.321518"
       height="42.495853"
       x="39.309525"
       y="55.499676" />
    <rect
       style="fill:none;stroke:#000000;stroke-width:0.82800001;stroke-miterlimit:4;stroke-dasharray:none;stroke-opacity:1"
       id="rect825"
       width="22.45064"
       height="23.920622"
       x="66.416473"
       y="73.161774" />
    <path
       style="fill:none;stroke:#000000;stroke-width:0.26458332px;stroke-linecap:butt;stroke-linejoin:miter;stroke-opacity:1"
       d="m 123.21125,91.068828 c -0.0554,-0.299696 -0.30641,-0.518327 -0.4009,-0.801809 -0.028,-0.08411 0,-0.547719 0,-0.668174 0,-0.489995 0,-0.979987 0,-1.469982 0,-0.370584 0.0199,0.21332 -0.13364,-0.400905 -0.0216,-0.08643 0,-0.178178 0,-0.267269 0,-0.222723 0,-0.445449 0,-0.668173 0,-0.668174 0,-1.33635 0,-2.004523 0,-2.539061 0,-5.078119 0,-7.61718 0,-0.757263 0,-1.514527 0,-2.271791 0,-0.267269 0,-0.534541 0,-0.80181 0,-0.133633 0.0423,-0.274126 0,-0.400904 -0.0199,-0.05976 -0.11371,-0.07387 -0.13363,-0.133633 -0.0473,-0.142002 0.0473,-0.392539 0,-0.534541 -0.0315,-0.09449 -0.10214,-0.172775 -0.13364,-0.267268 -0.0282,-0.08452 0.0282,-0.182753 0,-0.267269 -0.0315,-0.0945 -0.10213,-0.172776 -0.13363,-0.267272 -0.0373,-0.112001 0.0443,-0.445974 0,-0.534538 -0.0282,-0.05635 -0.11372,-0.07387 -0.13364,-0.133635 -0.0282,-0.08452 0.0282,-0.182751 0,-0.267269 -0.0199,-0.05976 -0.10546,-0.07729 -0.13363,-0.133636 -0.0199,-0.03984 0.0141,-0.09137 0,-0.133633 -0.063,-0.188989 -0.20428,-0.345551 -0.26727,-0.53454 -0.0282,-0.08452 0.0398,-0.187585 0,-0.267269 -0.0282,-0.05635 -0.10546,-0.07729 -0.13364,-0.133636 -0.0398,-0.07968 0.0398,-0.187584 0,-0.267269 -0.0282,-0.05634 -0.11371,-0.07387 -0.13363,-0.133636 -0.0282,-0.08451 0.0216,-0.180837 0,-0.267268 -0.0539,-0.215744 -0.13143,-0.265063 -0.26727,-0.400905 -0.0445,-0.04454 -0.11371,-0.07387 -0.13364,-0.133633 -0.0282,-0.08452 0.0282,-0.182753 0,-0.267272 -0.0398,-0.119525 -0.21092,-0.154577 -0.26727,-0.267268 -0.0398,-0.07968 0.0399,-0.187585 0,-0.267269 -0.0563,-0.112692 -0.21092,-0.15458 -0.26726,-0.267269 -0.0199,-0.03984 0.0199,-0.09379 0,-0.133636 -0.0564,-0.112691 -0.19739,-0.162438 -0.26727,-0.267269 -0.0553,-0.08288 -0.0632,-0.196839 -0.13364,-0.267269 -0.0315,-0.0315 -0.10214,0.0315 -0.13363,0 -0.0315,-0.0315 0.0199,-0.09379 0,-0.133635 -0.0563,-0.112692 -0.21093,-0.15458 -0.26727,-0.267269 -0.0199,-0.03984 0.0315,-0.102137 0,-0.133636 -0.16277,-0.162764 -0.29857,-0.0626 -0.40091,-0.267269 -0.0199,-0.03984 0.0199,-0.09379 0,-0.133636 -0.0282,-0.05635 -0.0891,-0.08909 -0.13363,-0.133633 -0.0445,-0.04454 -0.0891,-0.08909 -0.13364,-0.133635 -0.22272,-0.222724 -0.44545,-0.44545 -0.66817,-0.668174 -0.0786,-0.0786 -0.47266,-0.503597 -0.53454,-0.53454 -0.0398,-0.01992 -0.10214,0.0315 -0.13363,0 -0.0704,-0.07043 -0.0784,-0.184391 -0.13364,-0.267269 -0.0811,-0.12165 -0.34168,-0.282459 -0.4009,-0.400905 -0.0199,-0.03984 0.0315,-0.102137 0,-0.133633 -0.0704,-0.07043 -0.19684,-0.0632 -0.26727,-0.133635 -0.0315,-0.0315 0.0199,-0.09379 0,-0.133636 -0.0282,-0.05635 -0.0987,-0.08122 -0.13364,-0.133633 -0.0553,-0.08288 -0.0784,-0.184394 -0.13363,-0.267272 -0.0699,-0.10483 -0.21093,-0.154577 -0.26727,-0.267269 -0.0199,-0.03984 0.0199,-0.09379 0,-0.133635 -0.0282,-0.05634 -0.0987,-0.08122 -0.13364,-0.133633 -0.0553,-0.08288 -0.0784,-0.184394 -0.13363,-0.267269 -0.0349,-0.05242 -0.10546,-0.07729 -0.13364,-0.133636 -0.063,-0.125992 -0.0612,-0.280114 -0.13363,-0.400905 -0.0648,-0.108037 -0.21093,-0.154577 -0.26727,-0.267269 -0.0398,-0.07968 0,-0.178181 0,-0.267268 -0.0445,-0.08909 -0.0784,-0.184394 -0.13364,-0.267272 -0.0349,-0.05241 -0.11835,-0.07252 -0.13363,-0.133633 -0.0324,-0.129646 0.0262,-0.269864 0,-0.400905 -0.0195,-0.09767 -0.0891,-0.178181 -0.13363,-0.267268 -0.11879,-0.237575 -0.21223,-0.392954 -0.26728,-0.668177 -0.0175,-0.08736 0.0216,-0.180837 0,-0.267268 -0.0241,-0.09663 -0.0891,-0.178179 -0.13363,-0.267269 -0.0445,-0.133636 -0.10601,-0.262776 -0.13363,-0.400905 -0.0175,-0.08736 0.0175,-0.179909 0,-0.267269 -0.0276,-0.138128 -0.10601,-0.262776 -0.13364,-0.400904 -0.0175,-0.08736 0.0175,-0.179909 0,-0.267269 0.25995,-0.371277 -0.21895,-0.341278 -0.26727,-0.53454 -0.0324,-0.129644 0.0262,-0.269865 0,-0.400905 -0.0195,-0.09767 -0.10948,-0.170638 -0.13363,-0.267269 -0.0216,-0.08643 0.0216,-0.18084 0,-0.267269 -0.0242,-0.09663 -0.10948,-0.170638 -0.13364,-0.267271 -0.0216,-0.08643 0.0216,-0.180838 0,-0.267269 -0.0241,-0.09663 -0.10947,-0.170638 -0.13363,-0.267269 -0.0455,-0.182028 0.0539,-0.640138 0,-0.801809 -0.0199,-0.05976 -0.10546,-0.07729 -0.13364,-0.133633 -0.64531,-1.29063 0.17216,0.249216 -0.13363,-0.668176 -0.0199,-0.05976 -0.11372,-0.07387 -0.13364,-0.133633 -0.0401,-0.120272 0.0401,-0.280633 0,-0.400905 -0.0315,-0.09449 -0.10213,-0.172776 -0.13363,-0.267269 -0.0141,-0.04226 0.0141,-0.09138 0,-0.133636 -0.0315,-0.09449 -0.10948,-0.170637 -0.13364,-0.267269 -0.0216,-0.08643 0,-0.178181 0,-0.267268 0,-0.04455 0.0199,-0.0938 0,-0.133636 -0.0282,-0.05635 -0.10546,-0.07729 -0.13363,-0.133636 -0.33139,-0.126114 -0.0756,-0.360299 -0.13364,-0.534538 -0.063,-0.188989 -0.21895,-0.341275 -0.26726,-0.53454 -0.0216,-0.08643 0.0282,-0.18275 0,-0.267269 -0.0399,-0.119525 -0.22743,-0.147743 -0.26727,-0.267269 -0.0564,-0.169037 0.0662,-0.369104 0,-0.53454 -0.0597,-0.149122 -0.19545,-0.257252 -0.26728,-0.400905 -0.0199,-0.03984 0.0141,-0.09137 0,-0.133633 -0.0315,-0.0945 -0.10213,-0.172775 -0.13363,-0.267269 -0.0141,-0.04226 0.0199,-0.09379 0,-0.133635 -0.0282,-0.05635 -0.0891,-0.08909 -0.13363,-0.133636 -0.0446,-0.08909 -0.0966,-0.174786 -0.13364,-0.267269 -0.077,-0.192505 -0.13296,-0.48909 -0.26727,-0.668173 -0.0756,-0.100793 -0.19167,-0.166476 -0.26727,-0.267269 -0.1764,-0.235199 -0.2245,-0.566613 -0.4009,-0.801809 -0.15119,-0.201589 -0.38335,-0.332952 -0.53454,-0.534541 -0.11953,-0.159369 -0.12641,-0.393673 -0.26727,-0.534537 -0.0704,-0.07043 -0.19684,-0.0632 -0.26727,-0.133636 -0.0704,-0.07043 -0.0784,-0.184394 -0.13364,-0.267269 -0.0349,-0.05242 -0.0987,-0.08122 -0.13363,-0.133636 -0.32361,-0.48542 0.0391,-0.0945 -0.26727,-0.400904 -0.31181,-0.311814 -0.62363,-0.623629 -0.93544,-0.935443 -0.0704,-0.07035 -0.32953,-0.365217 -0.40091,-0.400904 -0.39326,-0.196631 0.17595,0.309575 -0.26727,-0.133633 -0.17202,-0.172022 -0.29005,-0.319411 -0.53454,-0.400905 -0.0422,-0.01408 -0.0938,0.01992 -0.13363,0 -0.0563,-0.02817 -0.0739,-0.113715 -0.13364,-0.133636 -0.0737,-0.02455 -0.68839,0 -0.8018,0 -0.13897,0 -0.69669,-0.02627 -0.80181,0 -0.19327,0.04832 -0.34128,0.218954 -0.53454,0.267269 -0.17286,0.04322 -0.36168,-0.04321 -0.53454,0 -0.0966,0.02416 -0.17064,0.109477 -0.26727,0.133636 -0.0992,0.02479 -0.49352,-0.04102 -0.53454,0 -0.0315,0.0315 0.0315,0.102137 0,0.133636 -0.0315,0.0315 -0.10214,-0.0315 -0.13363,0 -0.2765,0.276494 0.42252,-0.01082 -0.13364,0.267268 -0.0398,0.01992 -0.0938,-0.01992 -0.13363,0 -0.0563,0.02817 -0.0891,0.08909 -0.13364,0.133634 -0.0445,0.04454 -0.10546,0.07729 -0.13363,0.133635 -0.0199,0.03984 0.0199,0.09379 0,0.133636 -0.0564,0.112689 -0.21093,0.154578 -0.26727,0.267269 -0.0398,0.07968 0.0398,0.187584 0,0.267269 -0.0282,0.05635 -0.10546,0.07729 -0.13364,0.133636 -0.0535,0.106907 0.0535,0.293997 0,0.400904 -0.0282,0.05635 -0.10546,0.07729 -0.13363,0.133633 -0.015,0.02995 0,0.502785 0,0.534541 0,0.267268 0,0.534537 0,0.801809 0,0.267269 0,0.534537 0,0.801806 0,0.08909 -0.0282,0.182753 0,0.267272 0.0199,0.05976 0.10546,0.07729 0.13363,0.133633 0.0199,0.03984 -0.0199,0.09379 0,0.133636 0.0282,0.05635 0.10547,0.07729 0.13364,0.133633 0.0534,0.10691 -0.0535,0.293997 0,0.400904 0.0282,0.05635 0.10546,0.07729 0.13363,0.133636 0.0199,0.03984 -0.0199,0.09379 0,0.133636 0.0282,0.05635 0.10547,0.07729 0.13364,0.133633 0.0199,0.03984 -0.0247,0.09657 0,0.133636 0.0699,0.10483 0.19738,0.162438 0.26727,0.267269 0.0494,0.07413 -0.0398,0.187584 0,0.267268 0.0282,0.05635 0.10546,0.07729 0.13363,0.133636 0.0424,0.08477 -0.0434,0.581361 0,0.668174 0.0282,0.05635 0.10546,0.07729 0.13364,0.133635 0.0176,0.03514 0,0.464659 0,0.534538 0,0.06019 0.0203,0.360236 0,0.400905 -0.0563,0.112691 -0.21093,0.15458 -0.26727,0.267269 -0.0199,0.03984 0.0315,0.102137 0,0.133635 -0.0704,0.07043 -0.19684,0.0632 -0.26727,0.133636 -0.0315,0.0315 0.0199,0.09379 0,0.133633 -0.0282,0.05635 -0.0891,0.08909 -0.13364,0.133636 -0.0445,0.04455 -0.0773,0.105463 -0.13363,0.133636 -0.0398,0.01992 -0.10214,-0.0315 -0.13364,0 -0.0315,0.0315 0.0315,0.102134 0,0.133633 -0.0322,0.03216 -0.50238,-0.03216 -0.53454,0 -0.17818,0.178181 0.22273,0.133635 -0.13363,0.133635 -1.33635,0 -2.672696,0 -4.009043,0 -0.400905,0 -0.80181,0 -1.202714,0 -0.08779,0 -0.503113,0.01572 -0.534538,0 -0.07968,-0.03984 0.03984,-0.187586 0,-0.267268 -0.02817,-0.05635 -0.105463,-0.07729 -0.133636,-0.133636 -0.01992,-0.03984 0.01408,-0.09138 0,-0.133636 -0.0315,-0.09449 -0.102137,-0.172775 -0.133633,-0.267269 -0.01408,-0.04226 0.01408,-0.09138 0,-0.133635 -0.04454,-0.08909 -0.08909,-0.178179 -0.133635,-0.267269 -0.04455,0 -0.102138,0.0315 -0.133636,0 -0.063,-0.063 0.063,-0.204275 0,-0.267269 -0.276495,-0.276495 0.01082,0.422521 -0.267269,-0.133636 -0.02035,-0.04067 0,-0.34072 0,-0.400905 0,-0.311814 0,-0.623628 0,-0.935442 0,-0.04454 0,-0.08909 0,-0.133636 0,-0.04454 -0.0315,-0.102134 0,-0.133633 0.0315,-0.0315 0.102137,0.0315 0.133636,0 0.06299,-0.063 -0.063,-0.204274 0,-0.267269 0.0315,-0.0315 0.102134,0.0315 0.133633,0 0.0315,-0.0315 0,-0.08909 0,-0.133635 0,-0.04455 0,-0.08909 0,-0.133636 0,-0.04454 0,-0.08909 0,-0.133633 0,-0.04454 -0.0315,-0.102137 0,-0.133636 0.0315,-0.0315 0.102137,0.0315 0.133636,0 0.0315,-0.0315 -0.01992,-0.09379 0,-0.133636 0.02817,-0.05635 0.105462,-0.07729 0.133635,-0.133633 0.042,-0.08399 -0.042,-0.450548 0,-0.53454 0.02817,-0.05635 0.105461,-0.07729 0.133633,-0.133633 0.03984,-0.07968 -0.03984,-0.187587 0,-0.267272 0.02817,-0.05635 0.105463,-0.07729 0.133636,-0.133633 0.01757,-0.03514 0,-0.464658 0,-0.53454 0,-0.356359 0,-0.712719 0,-1.069078 0,-0.04389 -0.01328,-0.380992 0,-0.400905 0.06989,-0.10483 0.197382,-0.162438 0.267269,-0.267269 0.03064,-0.04596 -0.0293,-0.371607 0,-0.400904 0.0315,-0.0315 0.102137,0.0315 0.133636,0 0.06299,-0.063 -0.063,-0.204274 0,-0.267269 0.0315,-0.0315 0.102137,0.0315 0.133633,0 0.063,-0.063 -0.063,-0.204274 0,-0.267269 0.0315,-0.0315 0.102137,0.0315 0.133636,0 0.0315,-0.0315 -0.01992,-0.09379 0,-0.133636 0.02817,-0.05635 0.105462,-0.07729 0.133635,-0.133635 0.01992,-0.03984 -0.01992,-0.09379 0,-0.133634 0.05634,-0.112691 0.210923,-0.15458 0.267269,-0.267268 0.01992,-0.03984 -0.0315,-0.102137 0,-0.133636 0.0315,-0.0315 0.102137,0.0315 0.133633,0 0.0315,-0.0315 -0.01992,-0.09379 0,-0.133636 0.05635,-0.112689 0.210926,-0.154577 0.267272,-0.267269 0.03984,-0.07968 -0.03984,-0.187584 0,-0.267269 0.05635,-0.112691 0.210923,-0.15458 0.267269,-0.267268 0.01992,-0.03984 -0.01408,-0.09138 0,-0.133636 0.0315,-0.09449 0.109476,-0.170638 0.133635,-0.267269 0.02162,-0.08643 -0.02817,-0.182753 0,-0.267272 0.01992,-0.05976 0.105461,-0.07729 0.133633,-0.133633 0.01992,-0.03984 -0.01408,-0.09138 0,-0.133635 0.0315,-0.09449 0.102138,-0.172776 0.133636,-0.267269 0.02817,-0.08452 -0.03984,-0.187585 0,-0.267269 0.02817,-0.05635 0.10546,-0.07729 0.133633,-0.133636 0.01992,-0.03984 -0.01992,-0.09379 0,-0.133636 0.02817,-0.05635 0.105463,-0.07729 0.133636,-0.133633 0.02649,-0.05298 -0.02732,-0.373586 0,-0.400904 0.0315,-0.0315 0.113713,0.03984 0.133636,0 0.04323,-0.08646 -0.048,-0.486537 0,-0.534541 0.0315,-0.0315 0.113712,0.03984 0.133633,0 0.03984,-0.07968 -0.03984,-0.187584 0,-0.267268 0.01992,-0.03984 0.102137,0.0315 0.133636,0 0.0315,-0.0315 -0.01992,-0.09379 0,-0.133636 0.278077,-0.556154 -0.0092,0.142862 0.267269,-0.133633 0.0315,-0.0315 -0.0315,-0.102137 0,-0.133636 0.0315,-0.0315 0.09379,0.01992 0.133635,0 0.112692,-0.05635 0.154578,-0.210923 0.267269,-0.267269 0.03984,-0.01992 0.102137,0.0315 0.133636,0 0.0315,-0.0315 -0.03984,-0.113713 0,-0.133636 0.07968,-0.03984 0.187584,0.03984 0.267269,0 0.03984,-0.01992 -0.0315,-0.102137 0,-0.133633 0.02732,-0.02732 0.347917,0.02649 0.400907,0 0.0563,-0.02817 0.0891,-0.08909 0.13363,-0.133636 0.0891,0 0.18275,0.02817 0.26727,0 0.0598,-0.01992 0.0773,-0.105462 0.13364,-0.133635 0.0398,-0.01992 0.0938,0.01992 0.13363,0 0.0563,-0.02817 0.0773,-0.105461 0.13364,-0.133633 0.0398,-0.01992 0.10213,0.0315 0.13363,0 0.0315,-0.0315 -0.0398,-0.113716 0,-0.133636 0.11953,-0.05976 0.28138,0.05976 0.4009,0 0.1127,-0.05635 0.15458,-0.210923 0.26727,-0.267269 0.0399,-0.01992 0.10214,0.0315 0.13364,0 0.0315,-0.0315 -0.0315,-0.102137 0,-0.133636 0.063,-0.06299 0.20427,0.063 0.26727,0 0.0315,-0.0315 -0.0315,-0.102137 0,-0.133633 0.063,-0.063 0.20427,0.063 0.26727,0 0.27649,-0.276495 -0.42252,0.01082 0.13363,-0.267271 0.0399,-0.01992 0.10214,0.0315 0.13364,0 0.0315,-0.0315 -0.0399,-0.113713 0,-0.133633 0.0797,-0.03984 0.18758,0.03984 0.26727,0 0.0398,-0.01992 -0.0199,-0.09379 0,-0.133636 0.055,-0.109932 0.46865,-0.435705 0.53454,-0.534538 0.0247,-0.03706 -0.0315,-0.102137 0,-0.133636 0.0704,-0.07043 0.19683,-0.0632 0.26727,-0.133635 0.0704,-0.07043 0.0632,-0.196837 0.13363,-0.267269 0.0315,-0.0315 0.11371,0.03984 0.13363,0 0.0399,-0.07968 -0.0398,-0.187585 0,-0.267269 0.0199,-0.03984 0.0938,0.01992 0.13364,0 0.0564,-0.02817 0.10546,-0.07729 0.13363,-0.133636 0.0199,-0.03984 0,-0.08909 0,-0.133633 0,-0.08909 -0.0282,-0.182753 0,-0.267271 0.0398,-0.119526 0.22743,-0.147741 0.26728,-0.267269 0.0282,-0.08452 -0.0399,-0.187585 0,-0.267269 0.0199,-0.03984 0.10213,0.0315 0.13363,0 0.0366,-0.03657 -0.0362,-0.462045 0,-0.53454 0.0282,-0.05635 0.10546,-0.07729 0.13363,-0.133634 0.0598,-0.119528 -0.0598,-0.281379 0,-0.400904 0.0199,-0.03984 0.10214,0.0315 0.13364,0 0.063,-0.063 -0.0398,-0.187584 0,-0.267269 0.0282,-0.05635 0.10546,-0.07729 0.13363,-0.133636 0.0199,-0.03984 0,-0.08909 0,-0.133636 0,-0.08909 0,-0.178178 0,-0.267268 0,-0.178179 0,-0.35636 0,-0.534538 0,-0.04454 0,-0.08909 0,-0.133636 0,-0.04454 -0.0199,-0.09379 0,-0.133636 0.0282,-0.05634 0.10547,-0.07729 0.13364,-0.133633 0.0398,-0.07968 -0.0398,-0.187587 0,-0.267271 0.16513,-0.330264 0.13363,0.04613 0.13363,-0.267269 0,-0.06301 0.006,-0.662117 0,-0.668173 -0.0704,-0.07043 -0.19683,-0.0632 -0.26727,-0.133636 -0.0315,-0.0315 0.0399,-0.113713 0,-0.133633 -0.0797,-0.03984 -0.18084,0.02162 -0.26727,0 -0.0966,-0.02416 -0.17277,-0.102137 -0.26726,-0.133636 -0.0423,-0.01408 -0.0938,0.01992 -0.13364,0 -0.0564,-0.02817 -0.0773,-0.105463 -0.13364,-0.133633 -0.0398,-0.01992 -0.0938,0.01992 -0.13363,0 -0.0563,-0.02817 -0.0773,-0.105463 -0.13364,-0.133636 -0.0797,-0.03984 -0.18758,0.03984 -0.26726,0 -0.0564,-0.02817 -0.0773,-0.105463 -0.13364,-0.133636 -0.0398,-0.01992 -0.0938,0.01992 -0.13363,0 -0.0564,-0.02817 -0.0773,-0.10546 -0.13364,-0.133633 -0.0797,-0.03984 -0.20427,0.063 -0.26727,0 -0.0315,-0.0315 0.0315,-0.102137 0,-0.133636 -0.0315,-0.0315 -0.0938,0.01992 -0.13363,0 -0.0563,-0.02817 -0.0773,-0.105462 -0.13364,-0.133635 -0.14305,-0.07153 -0.28519,0.115718 -0.53454,-0.133633 -0.0315,-0.0315 0.0398,-0.113716 0,-0.133636 -0.0797,-0.03984 -0.17818,0 -0.26727,0 -0.0445,0 -0.10213,0.0315 -0.13363,0 -0.0704,-0.07043 -0.0632,-0.196837 -0.13364,-0.267269 -0.0315,-0.0315 -0.0938,0.01992 -0.13363,0 -0.11269,-0.05635 -0.15458,-0.210923 -0.26727,-0.267269 -0.0398,-0.01992 -0.10214,0.0315 -0.13363,0 -0.0315,-0.0315 0.0315,-0.102137 0,-0.133636 -0.0315,-0.0315 -0.10214,0.0315 -0.13364,0 -0.0315,-0.0315 0.0315,-0.102137 0,-0.133635 -0.0315,-0.0315 -0.10214,0.0315 -0.13363,0 -0.0273,-0.02732 0.0265,-0.347919 0,-0.400902 -0.0282,-0.05635 -0.10547,-0.07729 -0.13364,-0.133636 -0.0199,-0.03984 0,-0.08909 0,-0.133636 0,-0.133633 -0.0598,-0.281376 0,-0.400904 0.0199,-0.03984 0.10214,0.0315 0.13364,0 0.27649,-0.276495 -0.42252,0.01082 0.13363,-0.267269 0.0398,-0.01992 0.11371,0.03984 0.13364,0 0.0398,-0.07969 -0.063,-0.204274 0,-0.267269 0.063,-0.063 0.18758,0.03984 0.26726,0 0.0399,-0.01992 -0.0398,-0.113714 0,-0.133635 0.0797,-0.03984 0.18759,0.03984 0.26727,0 0.0399,-0.01992 -0.0398,-0.113714 0,-0.133635 0.11953,-0.05976 0.28138,0.05976 0.40091,0 0.39326,-0.196631 -0.20744,-0.133635 0.4009,-0.133635 0.26727,0 0.53454,0 0.80181,0 0.0602,0 0.36024,-0.02034 0.40091,0 0.16036,0.08018 0.24054,0.320724 0.4009,0.400905 0.0797,0.03984 0.18758,-0.03984 0.26727,0 0.11269,0.05635 0.15458,0.210923 0.26727,0.267269 0.0398,0.01992 0.0938,-0.01992 0.13363,0 0.0563,0.02817 0.0773,0.105463 0.13364,0.133636 0.0797,0.03984 0.20427,-0.063 0.26727,0 0.0315,0.0315 -0.0315,0.102137 0,0.133633 0.063,0.063 0.18275,-0.02817 0.26727,0 0.0945,0.0315 0.17277,0.102137 0.26727,0.133635 0.0754,0.02514 0.31309,0 0.4009,0 0.22272,0 0.44545,0 0.66817,0 0.57909,0 1.15817,0 1.73726,0 0.12947,0 0.72212,0.02656 0.80181,0 0.46066,-0.153556 0.099,-0.133635 0.4009,-0.133635 0.0745,0 0.66281,0.0054 0.66817,0 0.063,-0.063 -0.063,-0.204272 0,-0.267269 0.0117,-0.01172 0.59151,0 0.66818,0 0.0445,0 0.10213,0.0315 0.13363,0 0.063,-0.063 -0.063,-0.204274 0,-0.267269 0.005,-0.0054 0.48547,0 0.53454,0 0.26727,0 0.53454,0 0.80181,0 0.13364,0 0.27126,-0.03241 0.4009,0 0.19327,0.04832 0.34128,0.218953 0.53454,0.267269 0.0864,0.02162 0.18275,-0.02817 0.26727,0 0.0598,0.01992 0.0773,0.105463 0.13364,0.133636 0.0398,0.01992 0.0938,-0.01992 0.13363,0 0.0564,0.02817 0.0773,0.10546 0.13364,0.133633 0.0398,0.01992 0.10213,-0.0315 0.13363,0 0.0315,0.0315 0,0.08909 0,0.133635 0,0.03176 0.015,0.504587 0,0.534541 -0.0282,0.05634 -0.0773,0.10546 -0.13363,0.133633 -0.0399,0.01992 -0.11372,-0.03984 -0.13364,0 -0.0398,0.07968 0.0399,0.187584 0,0.267269 -0.0318,0.06353 -0.27593,-0.08331 -0.4009,0 -0.0829,0.05525 -0.0632,0.196839 -0.13364,0.267271 -0.0315,0.0315 -0.10213,-0.0315 -0.13363,0 -0.0704,0.07043 -0.0632,0.196837 -0.13364,0.267269 -0.0315,0.0315 -0.10213,-0.0315 -0.13363,0 -0.2765,0.276495 0.42252,-0.01082 -0.13364,0.267269 -0.0797,0.03984 -0.18758,-0.03984 -0.26726,0 -0.0564,0.02817 -0.0773,0.105463 -0.13364,0.133636 -0.0797,0.03984 -0.18758,-0.03984 -0.26727,0 -0.0564,0.02817 -0.0773,0.10546 -0.13364,0.133633 -0.0398,0.01992 -0.0938,-0.01992 -0.13363,0 -0.0563,0.02817 -0.0773,0.105463 -0.13363,0.133635 -0.0828,0.04142 -0.58616,-0.04101 -0.66818,0 -0.0398,0.01992 0.0315,0.102138 0,0.133636 -0.0668,0.06681 -0.33408,-0.06682 -0.4009,0 -0.0315,0.0315 0.0315,0.102137 0,0.133633 -0.0366,0.03657 -0.46205,-0.03625 -0.53454,0 -0.0563,0.02817 -0.0773,0.105463 -0.13364,0.133636 -0.0398,0.01992 -0.10213,-0.0315 -0.13363,0 -0.0315,0.0315 0.0315,0.102137 0,0.133636 -0.0315,0.0315 -0.10214,-0.0315 -0.13363,0 -0.063,0.06299 0.063,0.204271 0,0.267269 -0.0315,0.0315 -0.10214,-0.0315 -0.13364,0 -0.063,0.06299 0.0398,0.187584 0,0.267269 -0.0282,0.05635 -0.10546,0.07729 -0.13364,0.133635 -0.0199,0.03984 0,0.08909 0,0.133633 0,0.08909 0,0.178181 0,0.267272 0,0.311814 0,0.623628 0,0.935442 0,0.35636 0,0.712719 0,1.069078 0,0.08781 -0.0251,0.325509 0,0.400905 0.0315,0.09449 0.10214,0.172775 0.13364,0.267269 0.0373,0.112003 -0.0443,0.445976 0,0.53454 0.0282,0.05635 0.0987,0.08122 0.13364,0.133633 0.29441,0.0673 0.0706,0.274913 0.13363,0.400905 0.3058,0.611595 -0.0554,-0.567068 0.26727,0.400904 0.0282,0.08452 -0.0398,0.187585 0,0.267269 0.0563,0.112692 0.22743,0.147744 0.26727,0.267272 0.0282,0.08452 -0.0282,0.18275 0,0.267269 0.0199,0.05976 0.0891,0.08909 0.13363,0.133633 0.0446,0.08909 0.10948,0.17064 0.13364,0.267271 0.0216,0.08643 -0.0494,0.193141 0,0.267269 0.0553,0.08288 0.19683,0.0632 0.26727,0.133636 0.0704,0.07043 0.0784,0.18439 0.13363,0.267269 0.035,0.05242 0.10547,0.07729 0.13364,0.133633 0.0199,0.03984 -0.0141,0.09138 0,0.133635 0.32265,0.967973 -0.0385,-0.21069 0.26727,0.400905 0.0199,0.03984 -0.0199,0.09379 0,0.133636 0.0282,0.05634 0.10546,0.07729 0.13363,0.133633 0.0199,0.03984 -0.0315,0.102137 0,0.133636 0.0315,0.0315 0.10214,-0.0315 0.13364,0 0.0704,0.07043 0.0784,0.184393 0.13363,0.267268 0.0699,0.104834 0.21092,0.154581 0.26727,0.267269 0.0199,0.03984 -0.0199,0.09379 0,0.133636 0.0239,0.04779 0.47897,0.497491 0.53454,0.534538 0.0829,0.05525 0.19684,0.0632 0.26727,0.133636 0.0315,0.0315 -0.0315,0.102137 0,0.133635 0.14086,0.140862 0.39367,0.126405 0.53454,0.267269 0.0315,0.0315 -0.0199,0.09379 0,0.133636 0.0177,0.03548 0.36542,0.383162 0.4009,0.400902 0.0399,0.01992 0.10214,-0.0315 0.13364,0 0.27649,0.276497 -0.42252,-0.01082 0.13363,0.267271 0.0398,0.01992 0.10214,-0.0315 0.13364,0 0.0315,0.0315 -0.0315,0.102137 0,0.133633 0.0704,0.07043 0.19683,0.0632 0.26727,0.133636 0.0315,0.0315 -0.0315,0.102137 0,0.133636 0.009,0.0086 0.50964,0.250674 0.53454,0.267269 0.0566,0.03776 0.37325,0.345612 0.4009,0.400904 0.0199,0.03984 -0.0199,0.09379 0,0.133633 0.0282,0.05635 0.0891,0.08909 0.13363,0.133636 0.0446,0.04454 0.0773,0.105463 0.13364,0.133636 0.0398,0.01992 0.10214,-0.0315 0.13363,0 0.0704,0.07043 0.0632,0.196837 0.13364,0.267269 0.0315,0.0315 0.10214,-0.0315 0.13363,0 0.0704,0.07043 0.0739,0.187584 0.13364,0.267269 0.0756,0.100793 0.17818,0.178181 0.26727,0.267269 0.31181,0.311816 0.62363,0.62363 0.93544,0.935444 0.0704,0.07035 0.36522,0.329531 0.40091,0.400905 0.0199,0.03984 -0.0247,0.09657 0,0.133633 0.0659,0.09883 0.47957,0.424609 0.53453,0.534541 0.0199,0.03984 -0.0199,0.09379 0,0.133633 0.0563,0.112691 0.21093,0.15458 0.26727,0.267271 0.0199,0.03984 -0.0315,0.102137 0,0.133633 0.0315,0.0315 0.10214,-0.0315 0.13364,0 0.0315,0.0315 -0.0199,0.09379 0,0.133636 0.0563,0.112691 0.21092,0.154577 0.26727,0.267269 0.0199,0.03984 -0.0199,0.09379 0,0.133636 0.0282,0.05635 0.0987,0.08122 0.13363,0.133633 0.0553,0.08288 0.0632,0.196839 0.13364,0.267271 0.0315,0.0315 0.11371,-0.03984 0.13363,0 0.0398,0.07968 -0.0282,0.182751 0,0.267269 0.0398,0.119526 0.21093,0.154578 0.26727,0.267269 0.0398,0.07968 -0.0398,0.187587 0,0.267269 0.0282,0.05635 0.10546,0.07729 0.13364,0.133635 0.0199,0.03984 -0.0315,0.102138 0,0.133636 0.0315,0.0315 0.10213,-0.0315 0.13363,0 0.0315,0.0315 -0.0315,0.102137 0,0.133633 0.0315,0.0315 0.10214,-0.0315 0.13364,0 0.27649,0.276495 -0.42252,-0.01082 0.13363,0.267272 0.0398,0.01992 0.10214,-0.0315 0.13364,0 0.0315,0.0315 -0.0199,0.09379 0,0.133633 0.0563,0.112691 0.21092,0.15458 0.26726,0.267269 0.0199,0.03984 -0.0315,0.102137 0,0.133636 0.0315,0.0315 0.0938,-0.01992 0.13364,0 0.0564,0.02817 0.10546,0.07729 0.13363,0.133635 0.0199,0.03984 -0.0398,0.113713 0,0.133633 0.0797,0.03984 0.18276,-0.02817 0.26728,0 0.41711,0.139042 -0.0445,0.08909 0.13363,0.267272 0.0315,0.0315 0.0938,-0.01992 0.13363,0 0.55616,0.278077 -0.14286,-0.0092 0.13364,0.267269 0.063,0.06299 0.18758,-0.03984 0.26727,0 0.11269,0.05635 0.15458,0.210923 0.26727,0.267269 0.0398,0.01992 0.0938,-0.01992 0.13363,0 0.11269,0.05634 0.15458,0.210923 0.26727,0.267268 0.0398,0.01992 0.0914,-0.01407 0.13364,0 0.0945,0.0315 0.17277,0.102138 0.26727,0.133636 0.0845,0.02817 0.18758,-0.03984 0.26727,0 0.0563,0.02817 0.0773,0.105463 0.13363,0.133636 0.0111,0.0055 0.38371,0.0057 0.40091,0 0.0891,-0.04455 0.17817,-0.08909 0.26726,-0.133636 0,-0.04454 -0.0315,-0.102137 0,-0.133636 0.0315,-0.0315 0.0938,0.01992 0.13364,0 0.0563,-0.02817 0.0891,-0.08909 0.13363,-0.133633 0.0446,-0.04454 0.10547,-0.07729 0.13364,-0.133635 0.0425,-0.08504 -0.0385,-0.552638 0,-0.668174 0.063,-0.188989 0.21895,-0.341275 0.26727,-0.53454 0.0216,-0.08643 -0.0282,-0.182751 0,-0.267269 0.0199,-0.05976 0.0891,-0.08909 0.13363,-0.133633 0.0446,-0.08909 0.10948,-0.170641 0.13364,-0.267272 0.0524,-0.209621 -0.0524,-0.458549 0,-0.668173 0.0242,-0.09663 0.10947,-0.170638 0.13363,-0.267269 0.0324,-0.129646 0,-0.267269 0,-0.400905 0,-0.125457 -0.0255,-0.591603 0,-0.668173 0.0199,-0.05976 0.10546,-0.07729 0.13364,-0.133636 0.0243,-0.0487 0,-0.591172 0,-0.668173 0,-0.534538 0,-1.069078 0,-1.603616 0,-0.97999 0,-1.959978 0,-2.939965 0,-0.35636 0,-0.712719 0,-1.069078 0,-0.178181 0.0221,-0.357736 0,-0.534541 -0.15525,-1.241935 -0.13364,-0.04966 -0.13364,-0.801806 0,-0.8909 0,-1.781797 0,-2.672697 0,-0.356359 0,-0.712718 0,-1.069078 0,-0.133635 0.0262,-0.269864 0,-0.400904 -0.0195,-0.09767 -0.1141,-0.169598 -0.13363,-0.267269 -0.0437,-0.2184 0,-0.44545 0,-0.668174 0,-0.489995 0,-0.97999 0,-1.469982 0,-0.02294 0.0163,-0.752806 0,-0.801809 -0.0199,-0.05976 -0.10547,-0.07729 -0.13364,-0.133636 -0.0199,-0.03984 0.0199,-0.09379 0,-0.133633 -0.0282,-0.05635 -0.10546,-0.07729 -0.13363,-0.133636 -0.0203,-0.04067 0,-0.34072 0,-0.400905 0,-0.155239 0.0303,-0.547026 0,-0.668173 -0.0242,-0.09663 -0.0891,-0.178178 -0.13364,-0.267269"
       id="path827"
       inkscape:connector-curvature="0" />
    <text
       xml:space="preserve"
       style="font-style:normal;font-weight:normal;font-size:10.58333302px;line-height:1.25;font-family:sans-serif;letter-spacing:0px;word-spacing:0px;fill:#000000;fill-opacity:1;stroke:none;stroke-width:0.26458332"
       x="69.757347"
       y="68.751823"
       id="text833"><tspan
         sodipodi:role="line"
         id="tspan831"
         x="69.757347"
         y="68.751823"
         style="stroke-width:0.26458332">2/3</tspan></text>
    <text
       xml:space="preserve"
       style="font-style:normal;font-weight:normal;font-size:10.58333302px;line-height:1.25;font-family:sans-serif;letter-spacing:0px;word-spacing:0px;fill:#000000;fill-opacity:1;stroke:none;stroke-width:0.26458332"
       x="45.302185"
       y="48.706608"
       id="text837"><tspan
         sodipodi:role="line"
         id="tspan835"
         x="45.302185"
         y="48.706608"
         style="stroke-width:0.26458332">8/8</tspan></text>
    <text
       xml:space="preserve"
       style="font-style:normal;font-weight:normal;font-size:10.58333302px;line-height:1.25;font-family:sans-serif;letter-spacing:0px;word-spacing:0px;fill:#000000;fill-opacity:1;stroke:none;stroke-width:0.26458332"
       x="11.358955"
       y="37.214016"
       id="text841"><tspan
         sodipodi:role="line"
         id="tspan839"
         x="11.358955"
         y="37.214016"
         style="stroke-width:0.26458332">0/12</tspan></text>
    <text
       xml:space="preserve"
       style="font-style:normal;font-weight:normal;font-size:10.58333302px;line-height:1.25;font-family:sans-serif;letter-spacing:0px;word-spacing:0px;fill:#000000;fill-opacity:1;stroke:none;stroke-width:0.26458332"
       x="15.768902"
       y="113.65311"
       id="text847"><tspan
         sodipodi:role="line"
         id="tspan845"
         x="15.768902"
         y="113.65311"
         style="stroke-width:0.26458332">N = três números, j_1, j_2, j_3</tspan></text>
    <text
       xml:space="preserve"
       style="font-style:normal;font-weight:normal;font-size:10.58333302px;line-height:1.25;font-family:sans-serif;letter-spacing:0px;word-spacing:0px;fill:#000000;fill-opacity:1;stroke:none;stroke-width:0.26458332"
       x="41.199406"
       y="125.02083"
       id="text851"><tspan
         sodipodi:role="line"
         id="tspan849"
         x="41.199406"
         y="125.02083"
         style="stroke-width:0.26458332">onde 0&lt;=j_1&lt;=12</tspan></text>
    <text
       xml:space="preserve"
       style="font-style:normal;font-weight:normal;font-size:10.58333302px;line-height:1.25;font-family:sans-serif;letter-spacing:0px;word-spacing:0px;fill:#000000;fill-opacity:1;stroke:none;stroke-width:0.26458332"
       x="41.1134"
       y="136.10875"
       id="text851-3"><tspan
         sodipodi:role="line"
         id="tspan849-6"
         x="41.1134"
         y="136.10875"
         style="stroke-width:0.26458332">onde 0&lt;=j_2&lt;=8</tspan></text>
    <text
       xml:space="preserve"
       style="font-style:normal;font-weight:normal;font-size:10.58333302px;line-height:1.25;font-family:sans-serif;letter-spacing:0px;word-spacing:0px;fill:#000000;fill-opacity:1;stroke:none;stroke-width:0.26458332"
       x="41.491375"
       y="147.82602"
       id="text851-7"><tspan
         sodipodi:role="line"
         id="tspan849-5"
         x="41.491375"
         y="147.82602"
         style="stroke-width:0.26458332">onde 0&lt;=j_3&lt;=3</tspan></text>
    <text
       xml:space="preserve"
       style="font-style:normal;font-weight:normal;font-size:10.58333302px;line-height:1.25;font-family:sans-serif;letter-spacing:0px;word-spacing:0px;fill:#000000;fill-opacity:1;stroke:none;stroke-width:0.26458332"
       x="16.063988"
       y="160.73958"
       id="text881"><tspan
         sodipodi:role="line"
         id="tspan879"
         x="16.063988"
         y="160.73958"
         style="stroke-width:0.26458332">I = j_1 = 0, j_2 = 0, j_3 = 0</tspan></text>
    <text
       xml:space="preserve"
       style="font-style:normal;font-weight:normal;font-size:10.58333302px;line-height:1.25;font-family:sans-serif;letter-spacing:0px;word-spacing:0px;fill:#000000;fill-opacity:1;stroke:none;stroke-width:0.26458332"
       x="12.662203"
       y="179.82738"
       id="text885"><tspan
         sodipodi:role="line"
         id="tspan883"
         x="12.662203"
         y="179.82738"
         style="stroke-width:0.26458332">A = Dado um estado e </tspan></text>
    <text
       xml:space="preserve"
       style="font-style:normal;font-weight:normal;font-size:10.58333302px;line-height:1.25;font-family:sans-serif;letter-spacing:0px;word-spacing:0px;fill:#000000;fill-opacity:1;stroke:none;stroke-width:0.26458332"
       x="37.608631"
       y="188.52083"
       id="text889"><tspan
         sodipodi:role="line"
         id="tspan887"
         x="37.608631"
         y="188.52083"
         style="stroke-width:0.26458332">Ação 1 - Para cada i = 1, 2, 3</tspan><tspan
         sodipodi:role="line"
         x="37.608631"
         y="201.75"
         style="stroke-width:0.26458332"
         id="tspan891">Um estado pode ser gerado </tspan><tspan
         sodipodi:role="line"
         x="37.608631"
         y="214.97916"
         style="stroke-width:0.26458332"
         id="tspan893">fazendo uma cópia de e, </tspan><tspan
         sodipodi:role="line"
         x="37.608631"
         y="228.20833"
         style="stroke-width:0.26458332"
         id="tspan895">modificando </tspan><tspan
         sodipodi:role="line"
         x="37.608631"
         y="241.4375"
         style="stroke-width:0.26458332"
         id="tspan897">j_1=0, j_2=0, ou j_3=0</tspan></text>
    <text
       xml:space="preserve"
       style="font-style:normal;font-weight:normal;font-size:10.58333302px;line-height:1.25;font-family:sans-serif;letter-spacing:0px;word-spacing:0px;fill:#000000;fill-opacity:1;stroke:none;stroke-width:0.26458332"
       x="39.6875"
       y="256.93451"
       id="text901"><tspan
         sodipodi:role="line"
         id="tspan899"
         x="39.6875"
         y="256.93451"
         style="stroke-width:0.26458332">Ação 2 - Para cada i = 1, 2, 3</tspan><tspan
         sodipodi:role="line"
         x="39.6875"
         y="270.16367"
         style="stroke-width:0.26458332"
         id="tspan903">Para cada j = 1, 2, 3, j!=i</tspan><tspan
         sodipodi:role="line"
         x="39.6875"
         y="283.39285"
         style="stroke-width:0.26458332"
         id="tspan905">(descrever como passar </tspan><tspan
         sodipodi:role="line"
         x="39.6875"
         y="296.62201"
         style="stroke-width:0.26458332"
         id="tspan907">do jarro i para o j)</tspan><tspan
         sodipodi:role="line"
         x="39.6875"
         y="309.85117"
         style="stroke-width:0.26458332"
         id="tspan909">Seja M</tspan></text>
  </g>
</svg>
